<?xml version="1.0" encoding="UTF-8" standalone="no"?>
<!DOCTYPE svg PUBLIC "-//W3C//DTD SVG 1.1//EN" "http://www.w3.org/Graphics/SVG/1.1/DTD/svg11.dtd">
<svg xmlns="http://www.w3.org/2000/svg" version="1.1" viewBox="0.00 0.00 500.00 500.00">
<g stroke-width="2.00" fill="none" stroke-linecap="butt">
<path stroke="#910976" vector-effect="non-scaling-stroke" d="
  M 325.73 139.48
  Q 323.25 137.35 322.23 132.93"
/>
<path stroke="#4d5aa8" vector-effect="non-scaling-stroke" d="
  M 262.97 169.52
  Q 254.30 169.05 245.94 169.24
  C 240.12 169.37 232.04 169.33 232.80 177.39
  A 1.03 1.02 86.4 0 0 233.85 178.32
  L 262.43 177.42"
/>
<path stroke="#9e0875" vector-effect="non-scaling-stroke" d="
  M 279.45 186.60
  C 258.90 183.02 242.18 183.44 225.00 195.15
  C 215.02 201.95 206.74 210.83 202.52 221.99
  C 193.83 245.03 198.04 271.11 215.91 288.84
  C 242.09 314.80 285.41 313.79 308.50 284.95
  C 315.05 276.75 317.38 267.71 319.83 257.80
  A 0.83 0.83 0.0 0 1 320.90 257.22
  Q 324.50 258.44 327.84 257.72"
/>
<path stroke="#9e0875" vector-effect="non-scaling-stroke" d="
  M 327.03 249.78
  L 321.54 249.79
  A 0.68 0.67 -1.8 0 1 320.86 249.16
  Q 320.45 243.62 319.72 237.78
  Q 317.94 223.51 310.88 211.01
  Q 310.70 210.69 310.80 210.33
  Q 310.85 210.14 310.94 210.02"
/>
<path stroke="#9e0875" vector-effect="non-scaling-stroke" d="
  M 312.95 208.02
  C 314.87 215.03 319.64 215.16 325.56 215.86
  A 0.97 0.97 0.0 0 1 326.33 216.44
  C 326.67 217.24 326.74 218.41 326.98 219.01
  C 330.15 226.97 340.92 231.14 347.59 224.41
  A 0.83 0.83 0.0 0 1 348.92 224.62
  C 352.97 232.54 363.96 233.57 368.55 225.48
  A 0.85 0.85 0.0 0 1 370.10 225.65
  C 372.75 234.04 375.36 238.88 384.81 240.26
  Q 393.09 241.46 401.37 239.79"
/>
<path stroke="#4d5aa8" vector-effect="non-scaling-stroke" d="
  M 348.77 358.55
  Q 359.01 351.38 366.28 340.63
  Q 368.14 337.88 364.82 337.97
  L 360.18 338.10
  A 6.71 6.71 0.0 0 0 354.70 341.19
  Q 350.61 347.55 343.90 352.92"
/>
<path stroke="#9e0875" vector-effect="non-scaling-stroke" d="
  M 317.90 343.93
  Q 317.37 334.76 310.34 332.05
  C 303.64 329.46 296.85 332.83 294.73 339.71
  C 294.18 341.51 294.34 343.77 293.86 345.86"
/>
<path stroke="#4d5aa8" vector-effect="non-scaling-stroke" d="
  M 278.10 327.19
  Q 248.46 326.91 219.00 326.50
  C 214.39 326.44 211.47 330.71 209.10 334.09
  A 0.57 0.57 0.0 0 0 209.57 334.99
  Q 243.25 335.01 277.00 334.99
  Q 277.48 334.99 278.08 334.53"
/>
<path stroke="#513184" vector-effect="non-scaling-stroke" d="
  M 201.63 302.46
  Q 199.20 304.87 197.43 304.67"
/>
<path stroke="#9e0875" vector-effect="non-scaling-stroke" d="
  M 197.43 304.67
  L 193.34 298.29"
/>
<path stroke="#4d5aa8" vector-effect="non-scaling-stroke" d="
  M 128.31 222.12
  Q 114.34 237.88 121.15 258.27
  A 0.37 0.36 -31.4 0 0 121.75 258.41
  Q 124.66 255.52 127.29 252.32
  Q 127.86 251.62 127.68 250.25
  Q 125.69 234.74 137.44 224.47
  C 139.44 222.72 142.88 220.95 141.23 217.69
  Q 139.42 214.11 135.00 216.09"
/>
<path stroke="#b22b9b" vector-effect="non-scaling-stroke" d="
  M 197.43 304.67
  C 198.28 310.55 198.29 313.34 196.33 318.69"
/>
<path stroke="#9e0875" vector-effect="non-scaling-stroke" d="
  M 184.43 318.86
  L 186.70 317.48
  Q 187.11 317.24 187.36 316.83
  C 193.27 307.18 178.43 303.64 177.26 311.98
  Q 176.52 317.17 182.29 318.84"
/>
<path stroke="#9e0875" vector-effect="non-scaling-stroke" d="
  M 315.28 119.42
  Q 304.67 130.68 291.01 138.26
  Q 289.60 139.05 289.56 140.26
  C 289.26 149.95 282.82 154.04 275.71 158.70
  Q 271.81 161.26 267.75 161.26
  Q 253.25 161.26 238.74 161.42
  Q 237.07 161.44 233.78 164.08
  C 233.18 164.57 232.59 164.53 231.98 164.87"
/>
<path stroke="#9e0875" vector-effect="non-scaling-stroke" d="
  M 227.58 158.33
  Q 232.73 153.27 240.47 153.39
  Q 250.99 153.55 261.50 153.70
  Q 266.53 153.77 271.39 152.59
  C 279.65 150.57 285.23 141.97 279.92 134.08
  Q 278.18 131.48 277.30 130.40"
/>
<path stroke="#f2038d" vector-effect="non-scaling-stroke" d="
  M 208.48 133.97
  Q 199.57 135.17 195.57 136.83
  Q 190.92 138.75 187.85 142.35
  Q 180.82 150.62 173.07 161.06
  Q 169.65 165.68 159.71 175.45
  C 158.26 176.87 156.72 177.71 154.94 178.60
  Q 154.38 178.88 154.85 179.30
  Q 155.40 179.79 156.27 179.63
  C 162.98 178.46 170.27 173.41 176.06 169.89
  C 183.36 165.47 186.53 157.00 190.36 152.11
  Q 194.44 146.91 201.63 141.92
  C 203.58 140.56 205.50 140.13 207.76 139.74"
/>
<path stroke="#9e0875" vector-effect="non-scaling-stroke" d="
  M 212.81 142.02
  C 207.64 148.99 202.33 157.71 195.66 163.16
  C 175.25 179.86 149.93 186.43 124.07 188.01"
/>
<path stroke="#f2038d" vector-effect="non-scaling-stroke" d="
  M 129.56 177.51
  Q 130.28 176.86 131.46 177.86
  Q 131.84 178.18 132.33 178.07
  Q 137.09 177.02 141.93 176.94
  C 148.59 176.82 151.61 174.69 157.15 170.49
  C 164.78 164.71 171.20 156.38 176.46 148.45
  Q 180.09 142.98 175.02 138.88
  C 171.49 136.02 166.41 144.73 164.65 146.81
  C 160.88 151.29 158.64 157.19 154.65 161.18
  Q 150.60 165.23 145.75 167.27
  Q 141.13 169.23 136.18 167.60"
/>
<path stroke="#f2038d" vector-effect="non-scaling-stroke" d="
  M 397.81 215.53
  C 391.60 222.70 384.66 217.74 380.34 211.91
  C 378.34 209.21 376.75 210.61 375.12 212.62
  Q 373.02 215.22 370.45 217.23
  A 1.09 1.09 0.0 0 0 370.54 219.01
  Q 373.31 220.77 375.67 223.06
  C 377.25 224.59 378.67 227.08 380.24 228.51
  Q 386.06 233.80 392.76 231.09
  Q 397.70 229.09 400.32 229.24"
/>
<path stroke="#9e0875" vector-effect="non-scaling-stroke" d="
  M 311.50 343.77
  C 313.96 334.61 297.78 333.73 300.38 344.44"
/>
<path stroke="#9e0875" vector-effect="non-scaling-stroke" d="
  M 305.49 203.32
  Q 302.66 201.59 300.61 199.04"
/>
<path stroke="#9e0875" vector-effect="non-scaling-stroke" d="
  M 294.63 193.60
  L 288.00 190.33"
/>
<path stroke="#910976" vector-effect="non-scaling-stroke" d="
  M 373.72 135.00
  Q 373.16 134.91 373.22 134.00
  Q 373.48 129.85 373.38 125.89"
/>
<path stroke="#4d5aa8" vector-effect="non-scaling-stroke" d="
  M 269.44 375.51
  Q 268.03 374.88 266.13 374.97"
/>
<path stroke="#4d5aa8" vector-effect="non-scaling-stroke" d="
  M 275.16 383.73
  L 260.68 383.74"
/>
<path stroke="#9e0875" vector-effect="non-scaling-stroke" d="
  M 337.5539 239.9326
  A 5.20 5.05 20.4 0 0 334.4403 233.3867
  A 5.20 5.05 20.4 0 0 327.8061 236.3074
  A 5.20 5.05 20.4 0 0 330.9197 242.8533
  A 5.20 5.05 20.4 0 0 337.5539 239.9326"
/>
<path stroke="#4d5aa8" vector-effect="non-scaling-stroke" d="
  M 148.58 303.66
  C 154.05 301.56 153.91 294.69 156.84 290.34
  C 163.44 280.53 173.57 281.44 185.07 281.69"
/>
<path stroke="#513184" vector-effect="non-scaling-stroke" d="
  M 185.07 281.69
  Q 189.07 280.26 191.95 276.19
  A 1.20 1.20 0.0 0 0 190.97 274.29
  L 180.27 274.29"
/>
<path stroke="#4d5aa8" vector-effect="non-scaling-stroke" d="
  M 180.27 274.29
  L 168.59 274.16"
/>
<path stroke="#513184" vector-effect="non-scaling-stroke" d="
  M 168.59 274.16
  Q 157.39 273.37 150.76 282.20"
/>
<path stroke="#4d5aa8" vector-effect="non-scaling-stroke" d="
  M 150.76 282.20
  L 148.18 286.21"
/>
<path stroke="#607dce" vector-effect="non-scaling-stroke" d="
  M 185.07 281.69
  Q 183.66 277.39 180.27 274.29"
/>
<path stroke="#607dce" vector-effect="non-scaling-stroke" d="
  M 168.59 274.16
  Q 159.07 276.41 150.76 282.20"
/>
<path stroke="#4d5aa8" vector-effect="non-scaling-stroke" d="
  M 311.36 290.91
  C 302.77 301.39 291.51 306.82 278.69 310.49
  C 272.34 312.30 268.78 314.12 265.14 319.02
  A 0.29 0.29 0.0 0 0 265.34 319.48
  C 279.01 321.16 289.43 316.12 302.98 308.95
  C 308.68 305.94 318.36 298.10 319.73 290.93
  A 0.77 0.76 -84.7 0 0 318.98 290.02
  L 313.30 289.99
  A 2.51 2.50 19.5 0 0 311.36 290.91"
/>
<path stroke="#9e0875" vector-effect="non-scaling-stroke" d="
  M 387.8465 295.3029
  A 4.37 4.15 4.5 0 0 383.8156 290.8228
  A 4.37 4.15 4.5 0 0 379.1335 294.6171
  A 4.37 4.15 4.5 0 0 383.1644 299.0972
  A 4.37 4.15 4.5 0 0 387.8465 295.3029"
/>
<path stroke="#9e0875" vector-effect="non-scaling-stroke" d="
  M 349.6283 208.1256
  A 5.27 5.04 105.2 0 0 355.8737 204.3614
  A 5.27 5.04 105.2 0 0 352.3917 197.9544
  A 5.27 5.04 105.2 0 0 346.1463 201.7186
  A 5.27 5.04 105.2 0 0 349.6283 208.1256"
/>
<path stroke="#9e0875" vector-effect="non-scaling-stroke" d="
  M 370.82 203.36
  A 2.76 2.76 0.0 0 0 368.06 200.60
  A 2.76 2.76 0.0 0 0 365.30 203.36
  A 2.76 2.76 0.0 0 0 368.06 206.12
  A 2.76 2.76 0.0 0 0 370.82 203.36"
/>
<path stroke="#9e0875" vector-effect="non-scaling-stroke" d="
  M 338.8055 219.5091
  A 4.81 4.50 96.5 0 0 343.8211 215.2394
  A 4.81 4.50 96.5 0 0 339.8945 209.9509
  A 4.81 4.50 96.5 0 0 334.8789 214.2206
  A 4.81 4.50 96.5 0 0 338.8055 219.5091"
/>
<path stroke="#9e0875" vector-effect="non-scaling-stroke" d="
  M 356.3763 220.7034
  A 5.00 4.78 102.4 0 0 362.1185 216.8464
  A 5.00 4.78 102.4 0 0 358.5237 210.9366
  A 5.00 4.78 102.4 0 0 352.7815 214.7936
  A 5.00 4.78 102.4 0 0 356.3763 220.7034"
/>
<path stroke="#9e0875" vector-effect="non-scaling-stroke" d="
  M 285.77 200.22
  C 268.34 190.86 249.95 191.12 232.52 200.55
  Q 221.26 206.64 214.08 218.77
  C 204.63 234.76 203.93 253.04 212.35 269.47
  Q 220.07 284.52 234.85 292.39
  Q 250.02 300.46 268.99 298.03
  C 317.80 291.75 327.48 222.60 285.77 200.22"
/>
<path stroke="#765fa7" vector-effect="non-scaling-stroke" d="
  M 295.07 233.59
  L 293.74 229.11"
/>
<path stroke="#9e0875" vector-effect="non-scaling-stroke" d="
  M 293.74 229.11
  L 294.28 227.57"
/>
<path stroke="#d758be" vector-effect="non-scaling-stroke" d="
  M 293.74 229.11
  L 288.31 232.51
  A 1.27 1.26 55.8 0 1 286.61 232.18
  Q 284.54 229.35 281.97 226.54
  C 272.17 215.80 256.21 213.08 243.69 220.89
  Q 225.88 231.99 230.34 255.17"
/>
</g>
<path fill="#e5048e" d="
  M 325.73 139.48
  Q 323.25 137.35 322.23 132.93
  Q 323.96 131.37 325.96 129.52
  Q 327.74 127.87 329.52 125.95
  Q 341.30 113.16 354.25 99.37
  A 2.25 2.24 -41.8 0 1 357.68 99.56
  L 358.18 100.24
  Q 360.20 102.94 357.89 105.38
  L 325.73 139.48
  Z"
/>
<path fill="#ff018c" d="
  M 315.28 119.42
  Q 304.67 130.68 291.01 138.26
  Q 289.60 139.05 289.56 140.26
  C 289.26 149.95 282.82 154.04 275.71 158.70
  Q 271.81 161.26 267.75 161.26
  Q 253.25 161.26 238.74 161.42
  Q 237.07 161.44 233.78 164.08
  C 233.18 164.57 232.59 164.53 231.98 164.87
  Q 231.61 160.20 227.58 158.33
  Q 232.73 153.27 240.47 153.39
  Q 250.99 153.55 261.50 153.70
  Q 266.53 153.77 271.39 152.59
  C 279.65 150.57 285.23 141.97 279.92 134.08
  Q 278.18 131.48 277.30 130.40
  C 279.70 129.96 283.05 127.95 281.74 125.23
  Q 279.54 120.70 273.99 120.54
  Q 259.63 120.12 245.28 120.36
  Q 231.26 120.60 227.30 121.56
  Q 218.20 123.78 211.25 131.00
  Q 209.53 132.79 208.48 133.97
  Q 199.57 135.17 195.57 136.83
  Q 190.92 138.75 187.85 142.35
  Q 180.82 150.62 173.07 161.06
  Q 169.65 165.68 159.71 175.45
  C 158.26 176.87 156.72 177.71 154.94 178.60
  Q 154.38 178.88 154.85 179.30
  Q 155.40 179.79 156.27 179.63
  C 162.98 178.46 170.27 173.41 176.06 169.89
  C 183.36 165.47 186.53 157.00 190.36 152.11
  Q 194.44 146.91 201.63 141.92
  C 203.58 140.56 205.50 140.13 207.76 139.74
  Q 208.89 142.57 212.81 142.02
  C 207.64 148.99 202.33 157.71 195.66 163.16
  C 175.25 179.86 149.93 186.43 124.07 188.01
  L 129.56 177.51
  Q 130.28 176.86 131.46 177.86
  Q 131.84 178.18 132.33 178.07
  Q 137.09 177.02 141.93 176.94
  C 148.59 176.82 151.61 174.69 157.15 170.49
  C 164.78 164.71 171.20 156.38 176.46 148.45
  Q 180.09 142.98 175.02 138.88
  C 171.49 136.02 166.41 144.73 164.65 146.81
  C 160.88 151.29 158.64 157.19 154.65 161.18
  Q 150.60 165.23 145.75 167.27
  Q 141.13 169.23 136.18 167.60
  C 148.29 153.09 156.94 143.70 171.22 132.74
  C 176.07 129.01 181.85 126.24 187.85 122.86
  Q 201.29 115.27 220.00 110.49
  Q 223.42 109.61 235.46 107.76
  Q 239.12 107.20 243.09 107.04
  C 253.26 106.65 263.90 106.10 274.05 107.68
  C 288.61 109.95 301.48 112.92 315.28 119.42
  Z"
/>
<path fill="#e5048e" d="
  M 373.72 135.00
  Q 373.16 134.91 373.22 134.00
  Q 373.48 129.85 373.38 125.89
  L 388.16 111.08
  A 1.98 1.98 0.0 0 1 391.21 111.38
  L 391.61 111.99
  Q 393.29 114.52 391.19 116.71
  Q 382.11 126.16 374.43 133.70
  Q 374.11 134.01 373.72 135.00
  Z"
/>
<path fill="#3d0e5d" d="
  M 294.63 193.60
  L 288.00 190.33
  L 355.55 121.77
  Q 355.90 121.42 355.94 120.93
  C 356.47 114.51 365.19 111.45 367.01 118.48
  C 368.29 123.43 363.79 126.01 359.77 126.97
  A 1.79 1.71 14.3 0 0 358.92 127.45
  C 354.51 131.93 350.11 136.98 346.01 141.11
  Q 327.54 159.73 309.20 178.47
  C 305.24 182.52 298.87 187.84 294.63 193.60
  Z"
/>
<path fill="#3d0e5d" d="
  M 315.28 119.42
  L 320.40 122.45
  A 0.50 0.50 0.0 0 1 320.50 123.23
  Q 304.53 140.03 288.19 156.69
  C 281.76 163.25 274.57 168.03 265.91 169.03
  Q 264.28 169.22 262.97 169.52
  Q 254.30 169.05 245.94 169.24
  C 240.12 169.37 232.04 169.33 232.80 177.39
  A 1.03 1.02 86.4 0 0 233.85 178.32
  L 262.43 177.42
  Q 272.80 177.81 282.14 172.26
  Q 287.16 169.27 297.04 159.27
  C 305.63 150.57 314.25 142.24 322.23 132.93
  Q 323.25 137.35 325.73 139.48
  L 279.45 186.60
  C 258.90 183.02 242.18 183.44 225.00 195.15
  C 215.02 201.95 206.74 210.83 202.52 221.99
  C 193.83 245.03 198.04 271.11 215.91 288.84
  C 242.09 314.80 285.41 313.79 308.50 284.95
  C 315.05 276.75 317.38 267.71 319.83 257.80
  A 0.83 0.83 0.0 0 1 320.90 257.22
  Q 324.50 258.44 327.84 257.72
  L 393.71 257.74
  A 0.27 0.26 -90.0 0 0 393.97 257.47
  L 394.01 250.02
  Q 394.01 249.78 393.77 249.78
  L 327.03 249.78
  L 321.54 249.79
  A 0.68 0.67 -1.8 0 1 320.86 249.16
  Q 320.45 243.62 319.72 237.78
  Q 317.94 223.51 310.88 211.01
  Q 310.70 210.69 310.80 210.33
  Q 310.85 210.14 310.94 210.02
  Q 311.62 208.96 312.95 208.02
  C 314.87 215.03 319.64 215.16 325.56 215.86
  A 0.97 0.97 0.0 0 1 326.33 216.44
  C 326.67 217.24 326.74 218.41 326.98 219.01
  C 330.15 226.97 340.92 231.14 347.59 224.41
  A 0.83 0.83 0.0 0 1 348.92 224.62
  C 352.97 232.54 363.96 233.57 368.55 225.48
  A 0.85 0.85 0.0 0 1 370.10 225.65
  C 372.75 234.04 375.36 238.88 384.81 240.26
  Q 393.09 241.46 401.37 239.79
  Q 404.13 276.44 391.61 310.09
  C 383.62 331.59 369.72 350.76 352.80 366.39
  Q 351.92 367.20 351.79 366.01
  Q 351.36 361.91 348.77 358.55
  Q 359.01 351.38 366.28 340.63
  Q 368.14 337.88 364.82 337.97
  L 360.18 338.10
  A 6.71 6.71 0.0 0 0 354.70 341.19
  Q 350.61 347.55 343.90 352.92
  L 336.96 348.45
  Q 336.45 348.12 336.98 347.83
  C 356.05 337.17 371.19 318.41 373.60 295.61
  Q 373.96 292.15 374.03 286.49
  Q 374.03 286.00 374.52 286.00
  L 390.30 286.00
  Q 391.10 286.00 391.11 285.20
  L 391.22 278.74
  Q 391.23 278.00 390.49 278.00
  L 365.52 278.00
  Q 365.02 278.00 365.07 278.49
  Q 365.51 282.64 365.71 286.62
  C 366.88 309.48 351.79 330.26 332.23 340.67
  Q 332.02 340.79 331.95 340.55
  L 329.96 333.07
  A 0.34 0.33 65.8 0 1 330.09 332.71
  C 345.86 321.91 359.24 307.98 358.92 287.00
  Q 358.82 279.78 358.65 272.61
  A 0.84 0.84 0.0 0 1 359.49 271.75
  L 391.51 271.75
  A 1.13 1.13 0.0 0 0 392.64 270.68
  L 392.96 264.51
  A 0.95 0.95 0.0 0 0 392.01 263.51
  L 351.73 263.51
  Q 350.76 263.51 350.78 264.49
  Q 350.99 275.77 350.84 287.26
  Q 350.66 301.06 341.43 311.22
  Q 332.01 321.57 320.77 330.79
  Q 319.86 331.54 320.43 332.58
  Q 323.38 338.00 323.55 344.22
  A 0.32 0.31 2.4 0 1 323.20 344.54
  L 317.90 343.93
  Q 317.37 334.76 310.34 332.05
  C 303.64 329.46 296.85 332.83 294.73 339.71
  C 294.18 341.51 294.34 343.77 293.86 345.86
  L 289.84 347.09
  A 0.90 0.90 0.0 0 1 288.68 346.33
  C 287.15 332.68 297.46 323.18 311.14 325.18
  Q 311.64 325.25 312.06 324.97
  C 324.73 316.27 335.29 306.53 339.32 291.19
  C 341.45 283.05 341.22 272.88 340.72 263.97
  Q 340.69 263.51 340.24 263.51
  L 324.98 263.52
  A 0.74 0.73 -0.8 0 0 324.24 264.27
  L 324.41 270.96
  Q 324.43 271.74 325.21 271.74
  L 331.99 271.75
  Q 332.58 271.75 332.63 272.34
  C 333.74 284.04 331.04 294.95 323.36 304.02
  C 320.38 307.54 312.55 315.84 307.70 316.06
  C 298.30 316.50 292.57 320.12 285.94 326.39
  A 1.41 1.37 -67.9 0 1 285.07 326.77
  L 278.10 327.19
  Q 248.46 326.91 219.00 326.50
  C 214.39 326.44 211.47 330.71 209.10 334.09
  A 0.57 0.57 0.0 0 0 209.57 334.99
  Q 243.25 335.01 277.00 334.99
  Q 277.48 334.99 278.08 334.53
  L 280.38 334.98
  Q 281.04 335.11 280.95 335.77
  L 279.89 343.97
  Q 279.82 344.52 279.27 344.52
  L 203.53 344.53
  Q 203.20 344.53 203.20 344.20
  L 203.28 330.86
  A 1.47 1.43 -29.5 0 1 203.51 330.08
  C 205.68 326.74 208.56 324.21 210.15 320.27
  C 211.85 316.08 211.90 310.73 211.60 306.32
  Q 211.55 305.61 212.06 305.10
  L 218.02 299.05
  A 0.95 0.95 0.0 0 0 218.02 297.71
  L 212.35 292.09
  Q 211.70 291.44 211.04 292.08
  C 209.18 293.88 202.88 299.11 202.02 301.31
  Q 201.75 302.00 201.63 302.46
  Q 199.20 304.87 197.43 304.67
  L 193.34 298.29
  Q 200.72 292.14 206.15 285.26
  Q 206.54 284.78 206.15 284.30
  L 201.60 278.65
  A 0.67 0.65 -42.1 0 0 200.61 278.61
  L 190.65 288.86
  Q 190.26 289.25 189.72 289.22
  Q 187.19 289.07 184.75 288.91
  C 177.66 288.45 171.97 291.89 166.86 297.11
  Q 149.48 314.85 132.30 332.56
  A 0.46 0.45 51.1 0 1 131.59 332.48
  C 111.51 300.60 106.30 260.99 112.06 225.00
  Q 115.00 206.59 124.07 188.01
  C 149.93 186.43 175.25 179.86 195.66 163.16
  C 202.33 157.71 207.64 148.99 212.81 142.02
  C 215.43 138.96 218.05 135.30 221.24 133.17
  Q 227.68 128.86 235.50 128.78
  Q 242.83 128.70 271.01 128.75
  Q 273.19 128.75 277.30 130.40
  Q 278.18 131.48 279.92 134.08
  C 285.23 141.97 279.65 150.57 271.39 152.59
  Q 266.53 153.77 261.50 153.70
  Q 250.99 153.55 240.47 153.39
  Q 232.73 153.27 227.58 158.33
  Q 226.10 157.75 223.74 158.05
  Q 222.13 158.25 221.51 156.65
  C 220.84 154.91 221.99 153.12 223.14 151.87
  Q 229.79 144.61 239.75 144.65
  Q 253.70 144.70 268.78 144.77
  Q 273.29 144.79 273.50 140.28
  L 273.52 139.88
  Q 273.71 135.75 269.58 135.75
  Q 255.15 135.75 240.50 135.68
  C 229.68 135.63 223.92 140.73 216.64 147.65
  C 211.90 152.15 209.39 158.55 205.65 162.40
  Q 179.25 189.63 152.47 216.71
  A 0.26 0.26 0.0 0 1 152.03 216.54
  C 151.75 207.01 145.78 200.22 135.46 203.12
  C 127.38 205.39 125.32 215.17 128.31 222.12
  Q 114.34 237.88 121.15 258.27
  A 0.37 0.36 -31.4 0 0 121.75 258.41
  Q 124.66 255.52 127.29 252.32
  Q 127.86 251.62 127.68 250.25
  Q 125.69 234.74 137.44 224.47
  C 139.44 222.72 142.88 220.95 141.23 217.69
  Q 139.42 214.11 135.00 216.09
  Q 134.82 211.96 138.21 211.16
  C 145.80 209.36 143.83 223.36 143.44 226.67
  Q 143.38 227.16 142.90 227.20
  C 140.10 227.39 136.89 227.10 135.96 230.35
  C 135.00 233.71 137.62 236.49 141.02 236.40
  Q 144.62 236.29 147.45 233.44
  C 168.96 211.71 190.39 189.88 211.73 167.97
  Q 212.70 166.98 215.13 165.02
  A 1.00 0.98 35.0 0 1 216.09 164.86
  L 220.19 166.33
  Q 221.12 166.66 220.69 167.55
  C 218.90 171.27 216.55 173.53 213.67 176.40
  C 193.74 196.24 179.28 211.58 164.68 225.93
  Q 162.96 227.61 160.16 231.02
  Q 157.95 233.72 160.83 235.70
  L 161.48 236.15
  Q 164.36 238.12 166.79 235.60
  Q 183.12 218.62 199.15 202.98
  C 202.02 200.19 204.88 196.50 207.51 194.01
  C 216.83 185.16 225.12 179.03 229.15 169.39
  C 229.95 167.48 231.05 166.57 231.98 164.87
  C 232.59 164.53 233.18 164.57 233.78 164.08
  Q 237.07 161.44 238.74 161.42
  Q 253.25 161.26 267.75 161.26
  Q 271.81 161.26 275.71 158.70
  C 282.82 154.04 289.26 149.95 289.56 140.26
  Q 289.60 139.05 291.01 138.26
  Q 304.67 130.68 315.28 119.42
  Z
  M 337.5539 239.9326
  A 5.20 5.05 20.4 0 0 334.4403 233.3867
  A 5.20 5.05 20.4 0 0 327.8061 236.3074
  A 5.20 5.05 20.4 0 0 330.9197 242.8533
  A 5.20 5.05 20.4 0 0 337.5539 239.9326
  Z
  M 190.51 239.24
  A 5.61 5.61 0.0 0 0 184.90 233.63
  A 5.61 5.61 0.0 0 0 179.29 239.24
  A 5.61 5.61 0.0 0 0 184.90 244.85
  A 5.61 5.61 0.0 0 0 190.51 239.24
  Z
  M 148.58 303.66
  C 154.05 301.56 153.91 294.69 156.84 290.34
  C 163.44 280.53 173.57 281.44 185.07 281.69
  Q 189.07 280.26 191.95 276.19
  A 1.20 1.20 0.0 0 0 190.97 274.29
  L 180.27 274.29
  L 168.59 274.16
  Q 157.39 273.37 150.76 282.20
  L 148.18 286.21
  C 148.03 282.64 147.93 279.02 150.87 276.37
  C 159.05 269.00 169.38 261.07 165.01 248.28
  C 162.50 240.93 154.15 237.21 148.09 243.34
  Q 142.11 249.39 136.06 255.40
  C 130.30 261.12 126.49 265.99 125.97 273.50
  C 125.46 280.85 126.09 291.79 125.86 305.40
  C 125.78 309.97 129.53 314.23 132.73 317.02
  A 0.42 0.42 0.0 0 0 133.42 316.70
  Q 133.48 297.82 133.71 279.00
  C 133.85 266.99 141.18 262.44 148.66 254.87
  A 1.67 1.59 74.3 0 0 149.08 254.08
  C 150.11 249.59 155.93 247.62 157.43 253.06
  C 158.82 258.07 151.91 263.59 148.53 266.80
  C 144.83 270.30 140.82 275.11 140.76 280.50
  Q 140.56 296.09 140.84 311.39
  Q 140.86 312.28 141.54 311.71
  Q 145.61 308.29 148.58 303.66
  Z
  M 311.36 290.91
  C 302.77 301.39 291.51 306.82 278.69 310.49
  C 272.34 312.30 268.78 314.12 265.14 319.02
  A 0.29 0.29 0.0 0 0 265.34 319.48
  C 279.01 321.16 289.43 316.12 302.98 308.95
  C 308.68 305.94 318.36 298.10 319.73 290.93
  A 0.77 0.76 -84.7 0 0 318.98 290.02
  L 313.30 289.99
  A 2.51 2.50 19.5 0 0 311.36 290.91
  Z
  M 387.8465 295.3029
  A 4.37 4.15 4.5 0 0 383.8156 290.8228
  A 4.37 4.15 4.5 0 0 379.1335 294.6171
  A 4.37 4.15 4.5 0 0 383.1644 299.0972
  A 4.37 4.15 4.5 0 0 387.8465 295.3029
  Z"
/>
<path fill="#3d0e5d" d="
  M 373.38 125.89
  Q 373.48 129.85 373.22 134.00
  Q 373.16 134.91 373.72 135.00
  Q 373.48 135.35 372.93 135.57
  Q 372.46 135.76 372.10 136.13
  L 305.49 203.32
  Q 302.66 201.59 300.61 199.04
  L 373.38 125.89
  Z"
/>
<path fill="#ff018c" d="
  M 397.81 215.53
  C 391.60 222.70 384.66 217.74 380.34 211.91
  C 378.34 209.21 376.75 210.61 375.12 212.62
  Q 373.02 215.22 370.45 217.23
  A 1.09 1.09 0.0 0 0 370.54 219.01
  Q 373.31 220.77 375.67 223.06
  C 377.25 224.59 378.67 227.08 380.24 228.51
  Q 386.06 233.80 392.76 231.09
  Q 397.70 229.09 400.32 229.24
  L 401.37 239.79
  Q 393.09 241.46 384.81 240.26
  C 375.36 238.88 372.75 234.04 370.10 225.65
  A 0.85 0.85 0.0 0 0 368.55 225.48
  C 363.96 233.57 352.97 232.54 348.92 224.62
  A 0.83 0.83 0.0 0 0 347.59 224.41
  C 340.92 231.14 330.15 226.97 326.98 219.01
  C 326.74 218.41 326.67 217.24 326.33 216.44
  A 0.97 0.97 0.0 0 0 325.56 215.86
  C 319.64 215.16 314.87 215.03 312.95 208.02
  L 393.49 127.08
  A 0.47 0.46 56.8 0 1 394.25 127.24
  Q 394.50 127.87 394.50 128.75
  Q 394.37 166.63 394.52 204.50
  Q 394.53 208.35 397.81 215.53
  Z
  M 387.8408 189.2251
  A 4.65 4.65 0.0 0 0 383.1989 184.5670
  L 375.2389 184.5531
  A 4.65 4.65 0.0 0 0 370.5808 189.1949
  L 370.5792 190.0749
  A 4.65 4.65 0.0 0 0 375.2211 194.7330
  L 383.1811 194.7469
  A 4.65 4.65 0.0 0 0 387.8392 190.1051
  L 387.8408 189.2251
  Z
  M 349.6283 208.1256
  A 5.27 5.04 105.2 0 0 355.8737 204.3614
  A 5.27 5.04 105.2 0 0 352.3917 197.9544
  A 5.27 5.04 105.2 0 0 346.1463 201.7186
  A 5.27 5.04 105.2 0 0 349.6283 208.1256
  Z
  M 370.82 203.36
  A 2.76 2.76 0.0 0 0 368.06 200.60
  A 2.76 2.76 0.0 0 0 365.30 203.36
  A 2.76 2.76 0.0 0 0 368.06 206.12
  A 2.76 2.76 0.0 0 0 370.82 203.36
  Z
  M 338.8055 219.5091
  A 4.81 4.50 96.5 0 0 343.8211 215.2394
  A 4.81 4.50 96.5 0 0 339.8945 209.9509
  A 4.81 4.50 96.5 0 0 334.8789 214.2206
  A 4.81 4.50 96.5 0 0 338.8055 219.5091
  Z
  M 356.3763 220.7034
  A 5.00 4.78 102.4 0 0 362.1185 216.8464
  A 5.00 4.78 102.4 0 0 358.5237 210.9366
  A 5.00 4.78 102.4 0 0 352.7815 214.7936
  A 5.00 4.78 102.4 0 0 356.3763 220.7034
  Z"
/>
<path fill="#e5048e" d="
  M 208.48 133.97
  Q 206.55 137.73 207.76 139.74
  C 205.50 140.13 203.58 140.56 201.63 141.92
  Q 194.44 146.91 190.36 152.11
  C 186.53 157.00 183.36 165.47 176.06 169.89
  C 170.27 173.41 162.98 178.46 156.27 179.63
  Q 155.40 179.79 154.85 179.30
  Q 154.38 178.88 154.94 178.60
  C 156.72 177.71 158.26 176.87 159.71 175.45
  Q 169.65 165.68 173.07 161.06
  Q 180.82 150.62 187.85 142.35
  Q 190.92 138.75 195.57 136.83
  Q 199.57 135.17 208.48 133.97
  Z"
/>
<circle fill="#3d0e5d" cx="405.51" cy="140.25" r="4.26"/>
<path fill="#e5048e" d="
  M 129.56 177.51
  L 136.18 167.60
  Q 141.13 169.23 145.75 167.27
  Q 150.60 165.23 154.65 161.18
  C 158.64 157.19 160.88 151.29 164.65 146.81
  C 166.41 144.73 171.49 136.02 175.02 138.88
  Q 180.09 142.98 176.46 148.45
  C 171.20 156.38 164.78 164.71 157.15 170.49
  C 151.61 174.69 148.59 176.82 141.93 176.94
  Q 137.09 177.02 132.33 178.07
  Q 131.84 178.18 131.46 177.86
  Q 130.28 176.86 129.56 177.51
  Z"
/>
<circle fill="#ff018c" cx="405.44" cy="161.65" r="4.12"/>
<path fill="#5ca5f2" d="
  M 262.97 169.52
  Q 257.98 173.68 262.43 177.42
  L 233.85 178.32
  A 1.03 1.02 86.4 0 1 232.80 177.39
  C 232.04 169.33 240.12 169.37 245.94 169.24
  Q 254.30 169.05 262.97 169.52
  Z"
/>
<ellipse fill="#3d0e5d" cx="0.00" cy="0.00" transform="translate(405.49,182.98) rotate(-11.9)" rx="4.25" ry="4.05"/>
<path fill="#ff018c" d="
  M 279.45 186.60
  L 288.00 190.33
  L 294.63 193.60
  Q 297.20 196.82 300.61 199.04
  Q 302.66 201.59 305.49 203.32
  Q 307.63 206.82 310.40 209.93
  Q 310.52 210.06 310.63 210.07
  Q 310.78 210.09 310.94 210.02
  Q 310.85 210.14 310.80 210.33
  Q 310.70 210.69 310.88 211.01
  Q 317.94 223.51 319.72 237.78
  Q 320.45 243.62 320.86 249.16
  A 0.68 0.67 -1.8 0 0 321.54 249.79
  L 327.03 249.78
  Q 326.78 254.39 327.84 257.72
  Q 324.50 258.44 320.90 257.22
  A 0.83 0.83 0.0 0 0 319.83 257.80
  C 317.38 267.71 315.05 276.75 308.50 284.95
  C 285.41 313.79 242.09 314.80 215.91 288.84
  C 198.04 271.11 193.83 245.03 202.52 221.99
  C 206.74 210.83 215.02 201.95 225.00 195.15
  C 242.18 183.44 258.90 183.02 279.45 186.60
  Z
  M 285.77 200.22
  C 268.34 190.86 249.95 191.12 232.52 200.55
  Q 221.26 206.64 214.08 218.77
  C 204.63 234.76 203.93 253.04 212.35 269.47
  Q 220.07 284.52 234.85 292.39
  Q 250.02 300.46 268.99 298.03
  C 317.80 291.75 327.48 222.60 285.77 200.22
  Z"
/>
<path fill="#3d0e5d" d="
  M 285.77 200.22
  C 327.48 222.60 317.80 291.75 268.99 298.03
  Q 250.02 300.46 234.85 292.39
  Q 220.07 284.52 212.35 269.47
  C 203.93 253.04 204.63 234.76 214.08 218.77
  Q 221.26 206.64 232.52 200.55
  C 249.95 191.12 268.34 190.86 285.77 200.22
  Z
  M 295.07 233.59
  L 293.74 229.11
  L 294.28 227.57
  Q 294.50 227.72 294.77 227.73
  Q 294.99 227.74 295.24 227.57
  Q 298.38 225.39 301.33 222.84
  Q 301.74 222.49 301.46 222.03
  Q 289.24 201.68 265.25 199.34
  Q 240.47 196.93 224.24 215.28
  C 199.93 242.75 214.42 287.81 251.50 293.91
  Q 274.46 297.69 292.89 283.11
  A 0.76 0.76 0.0 0 0 292.97 281.99
  L 288.33 277.14
  A 0.92 0.91 -45.5 0 1 288.33 275.88
  C 299.09 264.48 300.13 248.23 295.07 233.59
  Z"
/>
<ellipse fill="#3d0e5d" cx="0.00" cy="0.00" transform="translate(351.01,203.04) rotate(105.2)" rx="5.27" ry="5.04"/>
<ellipse fill="#3d0e5d" cx="0.00" cy="0.00" transform="translate(405.54,204.15) rotate(5.1)" rx="4.23" ry="3.95"/>
<circle fill="#3d0e5d" cx="368.06" cy="203.36" r="2.76"/>
<path fill="#ff018c" d="
  M 294.28 227.57
  L 293.74 229.11
  L 288.31 232.51
  A 1.27 1.26 55.8 0 1 286.61 232.18
  Q 284.54 229.35 281.97 226.54
  C 272.17 215.80 256.21 213.08 243.69 220.89
  Q 225.88 231.99 230.34 255.17
  Q 234.60 267.40 244.62 273.39
  Q 257.74 281.24 272.52 275.77
  Q 272.77 275.68 272.91 275.91
  L 276.66 282.27
  Q 276.83 282.55 276.52 282.66
  Q 254.69 290.61 236.75 278.32
  C 226.43 271.25 220.33 257.81 221.01 245.08
  C 222.20 222.89 240.97 205.85 263.38 208.10
  C 276.16 209.38 286.87 216.99 294.28 227.57
  Z"
/>
<ellipse fill="#3d0e5d" cx="0.00" cy="0.00" transform="translate(339.35,214.73) rotate(96.5)" rx="4.81" ry="4.50"/>
<path fill="#e5048e" d="
  M 397.81 215.53
  L 400.32 229.24
  Q 397.70 229.09 392.76 231.09
  Q 386.06 233.80 380.24 228.51
  C 378.67 227.08 377.25 224.59 375.67 223.06
  Q 373.31 220.77 370.54 219.01
  A 1.09 1.09 0.0 0 1 370.45 217.23
  Q 373.02 215.22 375.12 212.62
  C 376.75 210.61 378.34 209.21 380.34 211.91
  C 384.66 217.74 391.60 222.70 397.81 215.53
  Z"
/>
<ellipse fill="#3d0e5d" cx="0.00" cy="0.00" transform="translate(357.45,215.82) rotate(102.4)" rx="5.00" ry="4.78"/>
<path fill="#5ca5f2" d="
  M 128.31 222.12
  L 135.00 216.09
  Q 139.42 214.11 141.23 217.69
  C 142.88 220.95 139.44 222.72 137.44 224.47
  Q 125.69 234.74 127.68 250.25
  Q 127.86 251.62 127.29 252.32
  Q 124.66 255.52 121.75 258.41
  A 0.37 0.36 -31.4 0 1 121.15 258.27
  Q 114.34 237.88 128.31 222.12
  Z"
/>
<path fill="#afaff0" d="
  M 293.74 229.11
  L 295.07 233.59
  Q 294.89 236.66 293.04 237.31
  Q 289.38 238.59 285.53 239.82
  A 1.59 1.57 66.7 0 1 283.65 239.06
  C 269.95 213.45 234.96 221.92 236.26 252.11
  A 1.54 1.54 0.0 0 1 234.86 253.71
  Q 233.01 253.88 230.34 255.17
  Q 225.88 231.99 243.69 220.89
  C 256.21 213.08 272.17 215.80 281.97 226.54
  Q 284.54 229.35 286.61 232.18
  A 1.27 1.26 55.8 0 0 288.31 232.51
  L 293.74 229.11
  Z"
/>
<rect fill="#5ca5f2" x="-3.06" y="-26.78" transform="translate(411.41,255.36) rotate(-0.1)" width="6.12" height="53.56" rx="2.67"/>
<rect fill="#5ca5f2" x="96.54" y="228.78" width="6.48" height="53.18" rx="2.13"/>
<ellipse fill="#ff018c" cx="0.00" cy="0.00" transform="translate(332.68,238.12) rotate(20.4)" rx="5.20" ry="5.05"/>
<path fill="#6454aa" d="
  M 168.59 274.16
  Q 159.07 276.41 150.76 282.20
  Q 157.39 273.37 168.59 274.16
  Z"
/>
<path fill="#6454aa" d="
  M 185.07 281.69
  Q 183.66 277.39 180.27 274.29
  L 190.97 274.29
  A 1.20 1.20 0.0 0 1 191.95 276.19
  Q 189.07 280.26 185.07 281.69
  Z"
/>
<path fill="#5ca5f2" d="
  M 168.59 274.16
  L 180.27 274.29
  Q 183.66 277.39 185.07 281.69
  C 173.57 281.44 163.44 280.53 156.84 290.34
  C 153.91 294.69 154.05 301.56 148.58 303.66
  L 148.18 286.21
  L 150.76 282.20
  Q 159.07 276.41 168.59 274.16
  Z"
/>
<path fill="#5ca5f2" d="
  M 278.69 310.49
  C 291.51 306.82 302.77 301.39 311.36 290.91
  A 2.51 2.50 19.5 0 1 313.30 289.99
  L 318.98 290.02
  A 0.77 0.76 -84.7 0 1 319.73 290.93
  C 318.36 298.10 308.68 305.94 302.98 308.95
  C 289.43 316.12 279.01 321.16 265.34 319.48
  A 0.29 0.29 0.0 0 1 265.14 319.02
  C 268.78 314.12 272.34 312.30 278.69 310.49
  Z"
/>
<ellipse fill="#ff018c" cx="0.00" cy="0.00" transform="translate(383.49,294.96) rotate(4.5)" rx="4.37" ry="4.15"/>
<path fill="#ff018c" d="
  M 193.34 298.29
  L 197.43 304.67
  C 198.28 310.55 198.29 313.34 196.33 318.69
  L 184.43 318.86
  L 186.70 317.48
  Q 187.11 317.24 187.36 316.83
  C 193.27 307.18 178.43 303.64 177.26 311.98
  Q 176.52 317.17 182.29 318.84
  Q 172.42 319.96 169.29 321.30
  Q 154.50 327.62 152.74 344.66
  Q 152.62 345.82 151.45 345.88
  C 146.73 346.11 143.89 348.49 144.47 353.46
  Q 144.54 354.08 144.02 353.73
  Q 137.99 349.78 133.93 354.06
  C 128.75 359.54 134.34 367.68 141.13 365.88
  C 142.10 365.62 142.99 364.88 143.97 364.33
  Q 144.64 363.96 144.53 364.72
  Q 143.89 368.98 145.30 372.98
  Q 145.49 373.54 144.92 373.71
  C 137.25 376.07 129.21 374.02 125.39 366.63
  C 121.32 358.75 123.55 349.18 131.82 344.56
  C 135.69 342.39 138.57 338.78 141.73 335.73
  Q 144.95 332.61 148.10 329.11
  C 153.79 322.81 160.19 317.10 165.71 310.90
  C 171.71 304.16 176.64 297.95 185.85 297.16
  C 188.33 296.95 190.78 297.98 193.34 298.29
  Z"
/>
<path fill="#6454aa" d="
  M 201.63 302.46
  C 202.90 308.49 203.64 313.13 200.75 319.01
  A 0.91 0.91 0.0 0 1 199.73 319.49
  L 196.33 318.69
  C 198.29 313.34 198.28 310.55 197.43 304.67
  Q 199.20 304.87 201.63 302.46
  Z"
/>
<path fill="#3d0e5d" d="
  M 184.43 318.86
  L 182.29 318.84
  Q 176.52 317.17 177.26 311.98
  C 178.43 303.64 193.27 307.18 187.36 316.83
  Q 187.11 317.24 186.70 317.48
  L 184.43 318.86
  Z"
/>
<path fill="#e5048e" d="
  M 186.02 370.39
  L 186.12 422.54
  A 0.66 0.66 0.0 0 1 185.46 423.20
  L 159.49 423.19
  A 0.46 0.45 0.0 0 1 159.03 422.74
  L 159.04 370.29
  A 0.75 0.75 0.0 0 0 158.28 369.54
  L 151.28 369.65
  A 0.62 0.62 0.0 0 1 150.65 369.03
  L 150.66 352.73
  A 0.61 0.60 -89.5 0 1 151.27 352.12
  L 158.26 352.18
  A 0.75 0.75 0.0 0 0 159.02 351.36
  C 158.45 345.51 159.41 339.22 162.64 334.35
  C 169.52 323.97 185.14 324.71 195.98 325.13
  A 1.01 1.01 0.0 0 1 196.95 326.14
  L 196.97 343.26
  A 0.62 0.62 0.0 0 1 196.36 343.88
  L 190.83 343.99
  Q 187.25 344.06 186.30 347.51
  L 185.80 349.32
  Q 185.02 352.19 187.99 352.14
  L 196.02 352.00
  A 0.89 0.89 0.0 0 1 196.92 352.89
  L 196.99 368.73
  A 0.96 0.96 0.0 0 1 196.02 369.70
  L 186.86 369.56
  Q 186.02 369.55 186.02 370.39
  Z"
/>
<path fill="#5ca5f2" d="
  M 278.10 327.19
  Q 275.08 331.92 278.08 334.53
  Q 277.48 334.99 277.00 334.99
  Q 243.25 335.01 209.57 334.99
  A 0.57 0.57 0.0 0 1 209.10 334.09
  C 211.47 330.71 214.39 326.44 219.00 326.50
  Q 248.46 326.91 278.10 327.19
  Z"
/>
<path fill="#ff018c" d="
  M 317.90 343.93
  L 311.50 343.77
  C 313.96 334.61 297.78 333.73 300.38 344.44
  L 293.86 345.86
  C 294.34 343.77 294.18 341.51 294.73 339.71
  C 296.85 332.83 303.64 329.46 310.34 332.05
  Q 317.37 334.76 317.90 343.93
  Z"
/>
<path fill="#3d0e5d" d="
  M 311.50 343.77
  L 300.38 344.44
  C 297.78 333.73 313.96 334.61 311.50 343.77
  Z"
/>
<path fill="#5ca5f2" d="
  M 348.77 358.55
  L 343.90 352.92
  Q 350.61 347.55 354.70 341.19
  A 6.71 6.71 0.0 0 1 360.18 338.10
  L 364.82 337.97
  Q 368.14 337.88 366.28 340.63
  Q 359.01 351.38 348.77 358.55
  Z"
/>
<path fill="#e5048e" d="
  M 321.02 416.14
  Q 314.62 423.62 304.26 425.00
  C 288.82 427.06 270.79 420.38 272.76 401.50
  C 274.89 381.15 299.48 381.97 314.64 378.21
  Q 317.02 377.62 319.32 375.35
  Q 319.65 375.03 319.74 374.59
  C 320.97 368.53 314.80 367.70 310.21 368.02
  Q 302.18 368.59 301.10 376.48
  Q 301.03 377.01 300.50 377.01
  L 276.51 377.01
  Q 276.01 377.01 276.02 376.50
  C 276.64 347.65 310.64 347.12 330.51 352.70
  Q 333.43 353.52 337.78 356.41
  C 345.35 361.45 347.25 369.35 347.26 378.44
  Q 347.27 397.85 347.32 417.25
  Q 347.33 419.75 349.49 420.75
  A 1.27 1.26 6.1 0 1 350.18 421.60
  Q 350.31 422.17 350.20 422.77
  Q 350.12 423.19 349.69 423.19
  L 322.96 423.19
  A 0.80 0.80 0.0 0 1 322.16 422.46
  L 321.60 416.32
  Q 321.53 415.54 321.02 416.14
  Z
  M 304.63 407.60
  C 316.00 409.87 322.17 402.63 321.09 391.76
  A 0.42 0.42 0.0 0 0 320.42 391.46
  C 317.10 393.87 312.47 394.71 308.51 395.59
  C 304.62 396.45 297.99 398.35 299.03 403.05
  C 299.64 405.81 302.01 407.08 304.63 407.60
  Z"
/>
<path fill="#e5048e" d="
  M 225.78 423.19
  L 198.76 423.20
  A 0.31 0.31 0.0 0 1 198.50 422.72
  L 220.62 387.78
  A 0.31 0.31 0.0 0 0 220.62 387.44
  L 198.43 352.56
  A 0.31 0.31 0.0 0 1 198.70 352.08
  L 225.72 352.14
  A 0.31 0.31 0.0 0 1 226.00 352.30
  L 235.22 369.51
  A 0.31 0.31 0.0 0 0 235.76 369.52
  L 245.15 352.33
  A 0.31 0.31 0.0 0 1 245.42 352.17
  L 272.36 352.06
  A 0.31 0.31 0.0 0 1 272.62 352.54
  L 250.76 387.43
  A 0.31 0.31 0.0 0 0 250.76 387.75
  L 272.52 422.73
  A 0.31 0.31 0.0 0 1 272.26 423.20
  L 244.97 423.18
  A 0.31 0.31 0.0 0 1 244.69 423.01
  L 235.77 405.69
  A 0.31 0.31 0.0 0 0 235.22 405.69
  L 226.06 423.02
  A 0.31 0.31 0.0 0 1 225.78 423.19
  Z"
/>
<path fill="#3d0e5d" d="
  M 237.42 353.42
  L 235.85 355.99
  A 0.31 0.31 0.0 0 1 235.33 356.00
  L 233.68 353.48
  A 0.31 0.31 0.0 0 1 233.93 353.00
  L 237.15 352.95
  A 0.31 0.31 0.0 0 1 237.42 353.42
  Z"
/>
<path fill="#3d0e5d" d="
  M 269.44 375.51
  Q 268.03 374.88 266.13 374.97
  L 270.18 368.65
  Q 271.01 367.36 270.72 368.86
  L 269.44 375.51
  Z"
/>
<path fill="#3d0e5d" d="
  M 192.99 376.02
  C 197.40 375.91 200.15 376.29 202.75 372.01
  Q 203.03 371.55 203.34 371.99
  Q 205.09 374.47 206.43 377.18
  C 207.73 379.80 206.53 382.64 210.47 383.80
  Q 210.97 383.95 211.24 384.39
  L 212.97 387.20
  A 0.92 0.92 0.0 0 1 212.95 388.17
  L 209.95 392.79
  Q 209.45 393.56 208.60 393.21
  L 192.82 386.78
  Q 192.32 386.57 192.32 386.03
  L 192.31 376.72
  Q 192.31 376.04 192.99 376.02
  Z"
/>
<path fill="#5ca5f2" d="
  M 266.13 374.97
  Q 268.03 374.88 269.44 375.51
  Q 269.45 378.65 270.62 380.64
  Q 271.63 382.36 275.16 383.73
  L 260.68 383.74
  L 266.13 374.97
  Z"
/>
<path fill="#3d0e5d" d="
  M 260.68 383.74
  L 275.16 383.73
  Q 267.40 390.51 267.11 398.74
  Q 267.00 401.81 265.36 399.21
  L 258.81 388.77
  Q 258.00 387.48 258.89 386.25
  L 260.68 383.74
  Z"
/>
</svg>
