<svg id="eRPFM5icXzH1" xmlns="http://www.w3.org/2000/svg" xmlns:xlink="http://www.w3.org/1999/xlink" viewBox="0 0 500 500" shape-rendering="geometricPrecision" text-rendering="geometricPrecision">
<style><![CDATA[
#eRPFM5icXzH2_tr {animation: eRPFM5icXzH2_tr__tr 3000ms linear infinite normal forwards}@keyframes eRPFM5icXzH2_tr__tr { 0% {transform: translate(255.528359px,249.532898px) rotate(0deg)} 16.666667% {transform: translate(255.528359px,249.532898px) rotate(-179.91092deg)} 33.333333% {transform: translate(255.528359px,249.532898px) rotate(-359.79339deg)} 66.666667% {transform: translate(255.528359px,249.532898px) rotate(-359.79339deg)} 83.333333% {transform: translate(255.528359px,249.532898px) rotate(-179.91092deg)} 100% {transform: translate(255.528359px,249.532898px) rotate(0deg)}} #eRPFM5icXzH2_ts {animation: eRPFM5icXzH2_ts__ts 3000ms linear infinite normal forwards}@keyframes eRPFM5icXzH2_ts__ts { 0% {transform: scale(0.018068,0.003094)} 33.333333% {transform: scale(1,1)} 41.333333% {transform: scale(1,0.680431)} 50% {transform: scale(1,1)} 58.333333% {transform: scale(0.778325,0.85578)} 66.666667% {transform: scale(1,1)} 100% {transform: scale(0.018068,0.003094)}} #eRPFM5icXzH91_to {animation: eRPFM5icXzH91_to__to 3000ms linear infinite normal forwards}@keyframes eRPFM5icXzH91_to__to { 0% {transform: translate(17.487593px,489.316651px)} 33.333333% {transform: translate(247.861374px,374.639099px)} 66.666667% {transform: translate(247.861374px,374.639099px)} 100% {transform: translate(17.487593px,489.316651px)}} #eRPFM5icXzH91_ts {animation: eRPFM5icXzH91_ts__ts 3000ms linear infinite normal forwards}@keyframes eRPFM5icXzH91_ts__ts { 0% {transform: scale(0.175226,0.212751)} 33.333333% {transform: scale(1,1)} 41.333333% {transform: scale(1,0.320402)} 50% {transform: scale(1,1)} 58.333333% {transform: scale(1,0.320402)} 66.666667% {transform: scale(1,1)} 100% {transform: scale(0.175226,0.212751)}} #eRPFM5icXzH91 {animation: eRPFM5icXzH91_c_o 3000ms linear infinite normal forwards}@keyframes eRPFM5icXzH91_c_o { 0% {opacity: 0} 33.333333% {opacity: 1} 66.666667% {opacity: 1} 100% {opacity: 0}}
]]></style>
<g id="eRPFM5icXzH2_tr" transform="translate(255.528359,249.532898) rotate(0)"><g id="eRPFM5icXzH2_ts" transform="scale(0.018068,0.003094)"><g transform="translate(-255.528358,-249.532898)"><g><path d="M325.73,139.48q-2.48-2.13-3.5-6.55" fill="none" stroke="#910976" stroke-width="2"/><path d="M262.97,169.52q-8.67-.47-17.03-.28c-5.82.13-13.9.09-13.14,8.15.05259.540832.51218.947897,1.05.93l28.58-.9" fill="none" stroke="#4d5aa8" stroke-width="2"/><path d="M279.45,186.6c-20.55-3.58-37.27-3.16-54.45,8.55-9.98,6.8-18.26,15.68-22.48,26.84-8.69,23.04-4.48,49.12,13.39,66.85c26.18,25.96,69.5,24.95,92.59-3.89c6.55-8.2,8.88-17.24,11.33-27.15.057383-.223721.20539-.413415.408441-.52348s.44278-.130546.661559-.05652q3.6,1.22,6.94.5" fill="none" stroke="#9e0875" stroke-width="2"/><path d="M327.03,249.78l-5.49.01c-.36048.00095-.65881-.275444-.68-.63q-.41-5.54-1.14-11.38-1.78-14.27-8.84-26.77-.18-.32-.08-.68.05-.19.14-.31" fill="none" stroke="#9e0875" stroke-width="2"/><path d="M312.95,208.02c1.92,7.01,6.69,7.14,12.61,7.84.341369.043083.634368.263784.77.58.34.8.41,1.97.65,2.57c3.17,7.96,13.94,12.13,20.61,5.4.187844-.189384.455261-.276947.718739-.235346s.490906.207299.611261.445346c4.05,7.92,15.04,8.95,19.63.86.167905-.29396.494239-.46026.830755-.423352s.619046.269987.719245.593352c2.65,8.39,5.26,13.23,14.71,14.61q8.28,1.2,16.56-.47" fill="none" stroke="#9e0875" stroke-width="2"/><path d="M348.77,358.55q10.24-7.17,17.51-17.92q1.86-2.75-1.46-2.66l-4.64.13c-2.226256.056803-4.279283,1.21444-5.48,3.09q-4.09,6.36-10.8,11.73" fill="none" stroke="#4d5aa8" stroke-width="2"/><path d="M317.9,343.93q-.53-9.17-7.56-11.88c-6.7-2.59-13.49.78-15.61,7.66-.55,1.8-.39,4.06-.87,6.15" fill="none" stroke="#9e0875" stroke-width="2"/><path d="M278.1,327.19q-29.64-.28-59.1-.69c-4.61-.06-7.53,4.21-9.9,7.59-.124007.174627-.139656.40403-.040512.593879s.296343.308097.510512.306121q33.68.02,67.43,0q.48,0,1.08-.46" fill="none" stroke="#4d5aa8" stroke-width="2"/><path d="M201.63,302.46q-2.43,2.41-4.2,2.21" fill="none" stroke="#513184" stroke-width="2"/><path d="M197.43,304.67l-4.09-6.38" fill="none" stroke="#9e0875" stroke-width="2"/><path d="M128.31,222.12q-13.97,15.76-7.16,36.15c.038456.1172.135416.205382.257028.233758s.250993-.006992.342972-.093758q2.91-2.89,5.54-6.09.57-.7.39-2.07-1.99-15.51,9.76-25.78c2-1.75,5.44-3.52,3.79-6.78q-1.81-3.58-6.23-1.6" fill="none" stroke="#4d5aa8" stroke-width="2"/><path d="M197.43,304.67c.85,5.88.86,8.67-1.1,14.02" fill="none" stroke="#b22b9b" stroke-width="2"/><path d="M184.43,318.86l2.27-1.38q.41-.24.66-.65c5.91-9.65-8.93-13.19-10.1-4.85q-.74,5.19,5.03,6.86" fill="none" stroke="#9e0875" stroke-width="2"/><path d="M315.28,119.42q-10.61,11.26-24.27,18.84-1.41.79-1.45,2c-.3,9.69-6.74,13.78-13.85,18.44q-3.9,2.56-7.96,2.56-14.5,0-29.01.16-1.67.02-4.96,2.66c-.6.49-1.19.45-1.8.79" fill="none" stroke="#9e0875" stroke-width="2"/><path d="M227.58,158.33q5.15-5.06,12.89-4.94q10.52.16,21.03.31q5.03.07,9.89-1.11c8.26-2.02,13.84-10.62,8.53-18.51q-1.74-2.6-2.62-3.68" fill="none" stroke="#9e0875" stroke-width="2"/><path d="M208.48,133.97q-8.91,1.2-12.91,2.86-4.65,1.92-7.72,5.52-7.03,8.27-14.78,18.71-3.42,4.62-13.36,14.39c-1.45,1.42-2.99,2.26-4.77,3.15q-.56.28-.09.7.55.49,1.42.33c6.71-1.17,14-6.22,19.79-9.74c7.3-4.42,10.47-12.89,14.3-17.78q4.08-5.2,11.27-10.19c1.95-1.36,3.87-1.79,6.13-2.18" fill="none" stroke="#f2038d" stroke-width="2"/><path d="M212.81,142.02c-5.17,6.97-10.48,15.69-17.15,21.14-20.41,16.7-45.73,23.27-71.59,24.85" fill="none" stroke="#9e0875" stroke-width="2"/><path d="M129.56,177.51q.72-.65,1.9.35.38.32.87.21q4.76-1.05,9.6-1.13c6.66-.12,9.68-2.25,15.22-6.45c7.63-5.78,14.05-14.11,19.31-22.04q3.63-5.47-1.44-9.57c-3.53-2.86-8.61,5.85-10.37,7.93-3.77,4.48-6.01,10.38-10,14.37q-4.05,4.05-8.9,6.09-4.62,1.96-9.57.33" fill="none" stroke="#f2038d" stroke-width="2"/><path d="M397.81,215.53c-6.21,7.17-13.15,2.21-17.47-3.62-2-2.7-3.59-1.3-5.22.71q-2.1,2.6-4.67,4.61c-.279193.21855-.43464.559239-.416736.913346s.206923.67738.506736.866654q2.77,1.76,5.13,4.05c1.58,1.53,3,4.02,4.57,5.45q5.82,5.29,12.52,2.58q4.94-2,7.56-1.85" fill="none" stroke="#f2038d" stroke-width="2"/><path d="M311.5,343.77c2.46-9.16-13.72-10.04-11.12.67" fill="none" stroke="#9e0875" stroke-width="2"/><path d="M305.49,203.32q-2.83-1.73-4.88-4.28" fill="none" stroke="#9e0875" stroke-width="2"/><path d="M294.63,193.6L288,190.33" fill="none" stroke="#9e0875" stroke-width="2"/><path d="M373.72,135q-.56-.09-.5-1q.26-4.15.16-8.11" fill="none" stroke="#910976" stroke-width="2"/><path d="M269.44,375.51q-1.41-.63-3.31-.54" fill="none" stroke="#4d5aa8" stroke-width="2"/><path d="M275.16,383.73l-14.48.01" fill="none" stroke="#4d5aa8" stroke-width="2"/><path d="M337.5539,239.9326c.466873-1.255351.401119-2.65026-.182796-3.877858s-1.638158-2.187322-2.930804-2.668042-2.717792-.443098-3.961948.10464-2.205395,1.560707-2.672252,2.81606-.401119,2.65026.182796,3.877858s1.638158,2.187322,2.930804,2.668042s2.717792.443098,3.961948-.10464s2.205395-1.560707,2.672252-2.81606" fill="none" stroke="#9e0875" stroke-width="2"/><path d="M148.58,303.66c5.47-2.1,5.33-8.97,8.26-13.32c6.6-9.81,16.73-8.9,28.23-8.65" fill="none" stroke="#4d5aa8" stroke-width="2"/><path d="M185.07,281.69q4-1.43,6.88-5.5c.263101-.366332.298572-.849254.091821-1.250097s-.620803-.651906-1.071821-.649903h-10.7" fill="none" stroke="#513184" stroke-width="2"/><path d="M180.27,274.29l-11.68-.13" fill="none" stroke="#4d5aa8" stroke-width="2"/><path d="M168.59,274.16q-11.2-.79-17.83,8.04" fill="none" stroke="#513184" stroke-width="2"/><path d="M150.76,282.2l-2.58,4.01" fill="none" stroke="#4d5aa8" stroke-width="2"/><path d="M185.07,281.69q-1.41-4.3-4.8-7.4" fill="none" stroke="#607dce" stroke-width="2"/><path d="M168.59,274.16q-9.52,2.25-17.83,8.04" fill="none" stroke="#607dce" stroke-width="2"/><path d="M311.36,290.91c-8.59,10.48-19.85,15.91-32.67,19.58-6.35,1.81-9.91,3.63-13.55,8.53-.061283.083231-.073635.192788-.032423.287575s.129758.160476.232423.172425c13.67,1.68,24.09-3.36,37.64-10.53c5.7-3.01,15.38-10.85,16.75-18.02.041776-.225732-.018027-.45833-.163097-.634348s-.360271-.277092-.586903-.275652l-5.68-.03c-.753136.000493-1.46536.338249-1.94.92" fill="none" stroke="#4d5aa8" stroke-width="2"/><path d="M387.8465,295.3029c.086364-1.097256-.2898-2.185698-1.045741-3.02588s-1.829735-1.363281-2.985159-1.45422c-2.406016-.189341-4.50225,1.509414-4.6821,3.7943-.086364,1.097256.2898,2.185698,1.045741,3.02588s1.829735,1.363281,2.985159,1.45422c2.406016.189341,4.50225-1.509414,4.6821-3.7943" fill="none" stroke="#9e0875" stroke-width="2"/><path d="M349.6283,208.1256c2.686131.729795,5.482286-.955492,6.2454-3.7642s-.795874-5.677216-3.482-6.407-5.482286.955492-6.2454,3.7642.795874,5.677216,3.482,6.407" fill="none" stroke="#9e0875" stroke-width="2"/><path d="M370.82,203.36c0-.731998-.290785-1.434014-.808385-1.951615s-1.219617-.808385-1.951615-.808385-1.434014.290785-1.951615.808385-.808385,1.219617-.808385,1.951615c0,1.524306,1.235694,2.76,2.76,2.76s2.76-1.235694,2.76-2.76" fill="none" stroke="#9e0875" stroke-width="2"/><path d="M338.8055,219.5091c1.18581.13511,2.380422-.238829,3.321031-1.039554s1.550164-1.962645,1.694569-3.230146-.188151-2.536752-.924532-3.528539-1.816258-1.624865-3.002068-1.759961-2.380422.238829-3.321031,1.039554-1.550164,1.962645-1.694569,3.230146.188151,2.536752.924532,3.528539s1.816258,1.624865,3.002068,1.759961" fill="none" stroke="#9e0875" stroke-width="2"/><path d="M356.3763,220.7034c1.238176.272234,2.538761.018811,3.615635-.704519s1.841824-1.857313,2.126565-3.152481c.592978-2.697002-1.016468-5.342908-3.5948-5.9098-1.238176-.272234-2.538761-.018811-3.615635.704519s-1.841824,1.857313-2.126565,3.152481c-.592978,2.697002,1.016468,5.342908,3.5948,5.9098" fill="none" stroke="#9e0875" stroke-width="2"/><path d="M285.77,200.22c-17.43-9.36-35.82-9.1-53.25.33q-11.26,6.09-18.44,18.22c-9.45,15.99-10.15,34.27-1.73,50.7q7.72,15.05,22.5,22.92q15.17,8.07,34.14,5.64c48.81-6.28,58.49-75.43,16.78-97.81" fill="none" stroke="#9e0875" stroke-width="2"/><path d="M295.07,233.59l-1.33-4.48" fill="none" stroke="#765fa7" stroke-width="2"/><path d="M293.74,229.11l.54-1.54" fill="none" stroke="#9e0875" stroke-width="2"/><path d="M293.74,229.11l-5.43,3.4c-.561405.356575-1.305683.212097-1.7-.33q-2.07-2.83-4.64-5.64c-9.8-10.74-25.76-13.46-38.28-5.65q-17.81,11.1-13.35,34.28" fill="none" stroke="#d758be" stroke-width="2"/></g><path d="M325.73,139.48q-2.48-2.13-3.5-6.55q1.73-1.56,3.73-3.41q1.78-1.65,3.56-3.57q11.78-12.79,24.73-26.58c.456193-.482342,1.10134-.739624,1.76277-.702985s1.27161.363458,1.66723.892985l.5.68q2.02,2.7-.29,5.14l-32.16,34.1Z" fill="#e5048e"/><path d="M315.28,119.42q-10.61,11.26-24.27,18.84-1.41.79-1.45,2c-.3,9.69-6.74,13.78-13.85,18.44q-3.9,2.56-7.96,2.56-14.5,0-29.01.16-1.67.02-4.96,2.66c-.6.49-1.19.45-1.8.79q-.37-4.67-4.4-6.54q5.15-5.06,12.89-4.94q10.52.16,21.03.31q5.03.07,9.89-1.11c8.26-2.02,13.84-10.62,8.53-18.51q-1.74-2.6-2.62-3.68c2.4-.44,5.75-2.45,4.44-5.17q-2.2-4.53-7.75-4.69-14.36-.42-28.71-.18-14.02.24-17.98,1.2-9.1,2.22-16.05,9.44-1.72,1.79-2.77,2.97-8.91,1.2-12.91,2.86-4.65,1.92-7.72,5.52-7.03,8.27-14.78,18.71-3.42,4.62-13.36,14.39c-1.45,1.42-2.99,2.26-4.77,3.15q-.56.28-.09.7.55.49,1.42.33c6.71-1.17,14-6.22,19.79-9.74c7.3-4.42,10.47-12.89,14.3-17.78q4.08-5.2,11.27-10.19c1.95-1.36,3.87-1.79,6.13-2.18q1.13,2.83,5.05,2.28c-5.17,6.97-10.48,15.69-17.15,21.14-20.41,16.7-45.73,23.27-71.59,24.85l5.49-10.5q.72-.65,1.9.35.38.32.87.21q4.76-1.05,9.6-1.13c6.66-.12,9.68-2.25,15.22-6.45c7.63-5.78,14.05-14.11,19.31-22.04q3.63-5.47-1.44-9.57c-3.53-2.86-8.61,5.85-10.37,7.93-3.77,4.48-6.01,10.38-10,14.37q-4.05,4.05-8.9,6.09-4.62,1.96-9.57.33c12.11-14.51,20.76-23.9,35.04-34.86c4.85-3.73,10.63-6.5,16.63-9.88q13.44-7.59,32.15-12.37q3.42-.88,15.46-2.73q3.66-.56,7.63-.72c10.17-.39,20.81-.94,30.96.64c14.56,2.27,27.43,5.24,41.23,11.74Z" fill="#ff018c"/><path d="M373.72,135q-.56-.09-.5-1q.26-4.15.16-8.11l14.78-14.81c.419241-.420554,1.005103-.630738,1.596076-.572609s1.124656.378431,1.453924.872609l.4.61q1.68,2.53-.42,4.72-9.08,9.45-16.76,16.99-.32.31-.71,1.3Z" fill="#e5048e"/><path d="M294.63,193.6L288,190.33l67.55-68.56q.35-.35.39-.84c.53-6.42,9.25-9.48,11.07-2.45c1.28,4.95-3.22,7.53-7.24,8.49-.326759.078314-.621558.244788-.85.48-4.41,4.48-8.81,9.53-12.91,13.66q-18.47,18.62-36.81,37.36c-3.96,4.05-10.33,9.37-14.57,15.13Z" fill="#3d0e5d"/><path d="M315.28,119.42l5.12,3.03c.131744.078677.220066.213492.239579.365695s-.031943.304938-.139579.414305q-15.97,16.8-32.31,33.46c-6.43,6.56-13.62,11.34-22.28,12.34q-1.63.19-2.94.49-8.67-.47-17.03-.28c-5.82.13-13.9.09-13.14,8.15.05259.540832.51218.947897,1.05.93l28.58-.9q10.37.39,19.71-5.16q5.02-2.99,14.9-12.99c8.59-8.7,17.21-17.03,25.19-26.34q1.02,4.42,3.5,6.55L279.45,186.6c-20.55-3.58-37.27-3.16-54.45,8.55-9.98,6.8-18.26,15.68-22.48,26.84-8.69,23.04-4.48,49.12,13.39,66.85c26.18,25.96,69.5,24.95,92.59-3.89c6.55-8.2,8.88-17.24,11.33-27.15.057383-.223721.20539-.413415.408441-.52348s.44278-.130546.661559-.05652q3.6,1.22,6.94.5l65.87.02c.068956,0,.135088-.028446.183848-.079081s.076152-.119311.076152-.190919l.04-7.45q0-.24-.24-.24h-66.74l-5.49.01c-.36048.00095-.65881-.275444-.68-.63q-.41-5.54-1.14-11.38-1.78-14.27-8.84-26.77-.18-.32-.08-.68.05-.19.14-.31.68-1.06,2.01-2c1.92,7.01,6.69,7.14,12.61,7.84.341369.043083.634368.263784.77.58.34.8.41,1.97.65,2.57c3.17,7.96,13.94,12.13,20.61,5.4.187844-.189384.455261-.276947.718739-.235346s.490906.207299.611261.445346c4.05,7.92,15.04,8.95,19.63.86.167905-.29396.494239-.46026.830755-.423352s.619046.269987.719245.593352c2.65,8.39,5.26,13.23,14.71,14.61q8.28,1.2,16.56-.47q2.76,36.65-9.76,70.3c-7.99,21.5-21.89,40.67-38.81,56.3q-.88.81-1.01-.38-.43-4.1-3.02-7.46q10.24-7.17,17.51-17.92q1.86-2.75-1.46-2.66l-4.64.13c-2.226256.056803-4.279283,1.21444-5.48,3.09q-4.09,6.36-10.8,11.73l-6.94-4.47q-.51-.33.02-.62c19.07-10.66,34.21-29.42,36.62-52.22q.36-3.46.43-9.12q0-.49.49-.49h15.78q.8,0,.81-.8l.11-6.46q.01-.74-.73-.74h-24.97q-.5,0-.45.49.44,4.15.64,8.13c1.17,22.86-13.92,43.64-33.48,54.05q-.21.12-.28-.12l-1.99-7.48c-.035366-.13761.016496-.281227.13-.36c15.77-10.8,29.15-24.73,28.83-45.71q-.1-7.22-.27-14.39c-.005388-.226227.080728-.445058.238846-.606941s.374863-.253123.601154-.253059h32.02c.601382.000848,1.098069-.469466,1.13-1.07l.32-6.17c.01373-.260502-.080264-.515187-.259934-.704313s-.429203-.296049-.690066-.295687h-40.28q-.97,0-.95.98.21,11.28.06,22.77-.18,13.8-9.41,23.96-9.42,10.35-20.66,19.57-.91.75-.34,1.79q2.95,5.42,3.12,11.64c.003656.089401-.032724.175872-.099792.237191s-.158284.091508-.250208.082809l-5.3-.61q-.53-9.17-7.56-11.88c-6.7-2.59-13.49.78-15.61,7.66-.55,1.8-.39,4.06-.87,6.15l-4.02,1.23c-.256255.079137-.534452.039866-.758788-.107113s-.371434-.386349-.401212-.652887c-1.53-13.65,8.78-23.15,22.46-21.15q.5.07.92-.21c12.67-8.7,23.23-18.44,27.26-33.78c2.13-8.14,1.9-18.31,1.4-27.22q-.03-.46-.48-.46l-15.26.01c-.199773.000002-.391089.079686-.530456.220935s-.214941.332064-.209544.529065l.17,6.69q.02.78.8.78l6.78.01q.59,0,.64.59c1.11,11.7-1.59,22.61-9.27,31.68-2.98,3.52-10.81,11.82-15.66,12.04-9.4.44-15.13,4.06-21.76,10.33-.239369.226096-.547342.360612-.87.38l-6.97.42q-29.64-.28-59.1-.69c-4.61-.06-7.53,4.21-9.9,7.59-.124007.174627-.139656.40403-.040512.593879s.296343.308097.510512.306121q33.68.02,67.43,0q.48,0,1.08-.46l2.3.45q.66.13.57.79l-1.06,8.2q-.07.55-.62.55l-75.74.01q-.33,0-.33-.33l.08-13.34c.000143-.274551.079948-.545193.23-.78c2.17-3.34,5.05-5.87,6.64-9.81c1.7-4.19,1.75-9.54,1.45-13.95q-.05-.71.46-1.22l5.96-6.05c.368669-.370594.368669-.969406,0-1.34l-5.67-5.62q-.65-.65-1.31-.01c-1.86,1.8-8.16,7.03-9.02,9.23q-.27.69-.39,1.15-2.43,2.41-4.2,2.21l-4.09-6.38q7.38-6.15,12.81-13.03.39-.48,0-.96l-4.55-5.65c-.115137-.147093-.2897-.235773-.479181-.243429s-.37557.066453-.510819.203429l-9.96,10.25q-.39.39-.93.36-2.53-.15-4.97-.31c-7.09-.46-12.78,2.98-17.89,8.2q-17.38,17.74-34.56,35.45c-.095593.099318-.232164.14817-.370613.13257s-.263513-.093931-.339387-.21257C111.51,300.6,106.3,260.99,112.06,225q2.94-18.41,12.01-36.99c25.86-1.58,51.18-8.15,71.59-24.85c6.67-5.45,11.98-14.17,17.15-21.14c2.62-3.06,5.24-6.72,8.43-8.85q6.44-4.31,14.26-4.39q7.33-.08,35.51-.03q2.18,0,6.29,1.65.88,1.08,2.62,3.68c5.31,7.89-.27,16.49-8.53,18.51q-4.86,1.18-9.89,1.11-10.51-.15-21.03-.31-7.74-.12-12.89,4.94-1.48-.58-3.84-.28-1.61.2-2.23-1.4c-.67-1.74.48-3.53,1.63-4.78q6.65-7.26,16.61-7.22q13.95.05,29.03.12q4.51.02,4.72-4.49l.02-.4q.19-4.13-3.94-4.13-14.43,0-29.08-.07c-10.82-.05-16.58,5.05-23.86,11.97-4.74,4.5-7.25,10.9-10.99,14.75q-26.4,27.23-53.18,54.31c-.072833.070297-.179844.091932-.274265.055451s-.159087-.124446-.165735-.225451c-.28-9.53-6.25-16.32-16.57-13.42-8.08,2.27-10.14,12.05-7.15,19q-13.97,15.76-7.16,36.15c.038456.1172.135416.205382.257028.233758s.250993-.006992.342972-.093758q2.91-2.89,5.54-6.09.57-.7.39-2.07-1.99-15.51,9.76-25.78c2-1.75,5.44-3.52,3.79-6.78q-1.81-3.58-6.23-1.6-.18-4.13,3.21-4.93c7.59-1.8,5.62,12.2,5.23,15.51q-.06.49-.54.53c-2.8.19-6.01-.1-6.94,3.15-.96,3.36,1.66,6.14,5.06,6.05q3.6-.11,6.43-2.96c21.51-21.73,42.94-43.56,64.28-65.47q.97-.99,3.4-2.95c.266497-.217199.630672-.277895.96-.16l4.1,1.47q.93.33.5,1.22c-1.79,3.72-4.14,5.98-7.02,8.85-19.93,19.84-34.39,35.18-48.99,49.53q-1.72,1.68-4.52,5.09-2.21,2.7.67,4.68l.65.45q2.88,1.97,5.31-.55q16.33-16.98,32.36-32.62c2.87-2.79,5.73-6.48,8.36-8.97c9.32-8.85,17.61-14.98,21.64-24.62.8-1.91,1.9-2.82,2.83-4.52.61-.34,1.2-.3,1.8-.79q3.29-2.64,4.96-2.66q14.51-.16,29.01-.16q4.06,0,7.96-2.56c7.11-4.66,13.55-8.75,13.85-18.44q.04-1.21,1.45-2q13.66-7.58,24.27-18.84Zm22.2739,120.5126c.466873-1.255351.401119-2.65026-.182796-3.877858s-1.638158-2.187322-2.930804-2.668042-2.717792-.443098-3.961948.10464-2.205395,1.560707-2.672252,2.81606-.401119,2.65026.182796,3.877858s1.638158,2.187322,2.930804,2.668042s2.717792.443098,3.961948-.10464s2.205395-1.560707,2.672252-2.81606ZM190.51,239.24c0-3.098317-2.511683-5.61-5.61-5.61-1.487865,0-2.91479.591052-3.966869,1.643131s-1.643131,2.479004-1.643131,3.966869c0,3.098317,2.511683,5.61,5.61,5.61s5.61-2.511683,5.61-5.61Zm-41.93,64.42c5.47-2.1,5.33-8.97,8.26-13.32c6.6-9.81,16.73-8.9,28.23-8.65q4-1.43,6.88-5.5c.263101-.366332.298572-.849254.091821-1.250097s-.620803-.651906-1.071821-.649903h-10.7l-11.68-.13q-11.2-.79-17.83,8.04l-2.58,4.01c-.15-3.57-.25-7.19,2.69-9.84c8.18-7.37,18.51-15.3,14.14-28.09-2.51-7.35-10.86-11.07-16.92-4.94q-5.98,6.05-12.03,12.06c-5.76,5.72-9.57,10.59-10.09,18.1-.51,7.35.12,18.29-.11,31.9-.08,4.57,3.67,8.83,6.87,11.62.124796.104738.298906.127854.446708.059308s.242628-.216386.243292-.379308q.06-18.88.29-37.7c.14-12.01,7.47-16.56,14.95-24.13.208934-.21544.354412-.489079.42-.79c1.03-4.49,6.85-6.46,8.35-1.02c1.39,5.01-5.52,10.53-8.9,13.74-3.7,3.5-7.71,8.31-7.77,13.7q-.2,15.59.08,30.89.02.89.7.32q4.07-3.42,7.04-8.05Zm162.78-12.75c-8.59,10.48-19.85,15.91-32.67,19.58-6.35,1.81-9.91,3.63-13.55,8.53-.061283.083231-.073635.192788-.032423.287575s.129758.160476.232423.172425c13.67,1.68,24.09-3.36,37.64-10.53c5.7-3.01,15.38-10.85,16.75-18.02.041776-.225732-.018027-.45833-.163097-.634348s-.360271-.277092-.586903-.275652l-5.68-.03c-.753136.000493-1.46536.338249-1.94.92Zm76.4865,4.3929c.086364-1.097256-.2898-2.185698-1.045741-3.02588s-1.829735-1.363281-2.985159-1.45422c-2.406016-.189341-4.50225,1.509414-4.6821,3.7943-.086364,1.097256.2898,2.185698,1.045741,3.02588s1.829735,1.363281,2.985159,1.45422c2.406016.189341,4.50225-1.509414,4.6821-3.7943Z" fill="#3d0e5d"/><path d="M373.38,125.89q.1,3.96-.16,8.11-.06.91.5,1-.24.35-.79.57-.47.19-.83.56l-66.61,67.19q-2.83-1.73-4.88-4.28l72.77-73.15Z" fill="#3d0e5d"/><path d="M397.81,215.53c-6.21,7.17-13.15,2.21-17.47-3.62-2-2.7-3.59-1.3-5.22.71q-2.1,2.6-4.67,4.61c-.279193.21855-.43464.559239-.416736.913346s.206923.67738.506736.866654q2.77,1.76,5.13,4.05c1.58,1.53,3,4.02,4.57,5.45q5.82,5.29,12.52,2.58q4.94-2,7.56-1.85l1.05,10.55q-8.28,1.67-16.56.47c-9.45-1.38-12.06-6.22-14.71-14.61-.100199-.323365-.38273-.556443-.719245-.593352s-.66285.129392-.830755.423352c-4.59,8.09-15.58,7.06-19.63-.86-.120355-.238047-.347783-.403744-.611261-.445346s-.530895.045962-.718739.235346c-6.67,6.73-17.44,2.56-20.61-5.4-.24-.6-.31-1.77-.65-2.57-.135632-.316216-.428631-.536917-.77-.58-5.92-.7-10.69-.83-12.61-7.84l80.54-80.94c.108327-.110713.265667-.157963.418715-.125742s.281292.139593.341285.285742q.25.63.25,1.51-.13,37.88.02,75.75.01,3.85,3.29,11.03Zm-9.9692-26.3049c.00215-1.233257-.485698-2.416857-1.356224-3.290421s-2.052419-1.365533-3.285676-1.367679l-7.96-.0139c-2.568087-.004477-4.653575,2.073713-4.6581,4.6418l-.0016.88c-.00215,1.233257.485698,2.416857,1.356224,3.290421s2.052419,1.365533,3.285676,1.367679l7.96.0139c2.568087.004477,4.653575-2.073713,4.6581-4.6418l.0016-.88Zm-38.2125,18.9005c2.686131.729795,5.482286-.955492,6.2454-3.7642s-.795874-5.677216-3.482-6.407-5.482286.955492-6.2454,3.7642.795874,5.677216,3.482,6.407ZM370.82,203.36c0-.731998-.290785-1.434014-.808385-1.951615s-1.219617-.808385-1.951615-.808385-1.434014.290785-1.951615.808385-.808385,1.219617-.808385,1.951615c0,1.524306,1.235694,2.76,2.76,2.76s2.76-1.235694,2.76-2.76Zm-32.0145,16.1491c1.18581.13511,2.380422-.238829,3.321031-1.039554s1.550164-1.962645,1.694569-3.230146-.188151-2.536752-.924532-3.528539-1.816258-1.624865-3.002068-1.759961-2.380422.238829-3.321031,1.039554-1.550164,1.962645-1.694569,3.230146.188151,2.536752.924532,3.528539s1.816258,1.624865,3.002068,1.759961Zm17.5708,1.1943c1.238176.272234,2.538761.018811,3.615635-.704519s1.841824-1.857313,2.126565-3.152481c.592978-2.697002-1.016468-5.342908-3.5948-5.9098-1.238176-.272234-2.538761-.018811-3.615635.704519s-1.841824,1.857313-2.126565,3.152481c-.592978,2.697002,1.016468,5.342908,3.5948,5.9098Z" fill="#ff018c"/><path d="M208.48,133.97q-1.93,3.76-.72,5.77c-2.26.39-4.18.82-6.13,2.18q-7.19,4.99-11.27,10.19c-3.83,4.89-7,13.36-14.3,17.78-5.79,3.52-13.08,8.57-19.79,9.74q-.87.16-1.42-.33-.47-.42.09-.7c1.78-.89,3.32-1.73,4.77-3.15q9.94-9.77,13.36-14.39q7.75-10.44,14.78-18.71q3.07-3.6,7.72-5.52q4-1.66,12.91-2.86Z" fill="#e5048e"/><circle r="4.26" transform="translate(405.51 140.25)" fill="#3d0e5d"/><path d="M129.56,177.51l6.62-9.91q4.95,1.63,9.57-.33q4.85-2.04,8.9-6.09c3.99-3.99,6.23-9.89,10-14.37c1.76-2.08,6.84-10.79,10.37-7.93q5.07,4.1,1.44,9.57c-5.26,7.93-11.68,16.26-19.31,22.04-5.54,4.2-8.56,6.33-15.22,6.45q-4.84.08-9.6,1.13-.49.11-.87-.21-1.18-1-1.9-.35Z" fill="#e5048e"/><circle r="4.12" transform="translate(405.44 161.65)" fill="#ff018c"/><path d="M262.97,169.52q-4.99,4.16-.54,7.9l-28.58.9c-.53782.017897-.99741-.389168-1.05-.93-.76-8.06,7.32-8.02,13.14-8.15q8.36-.19,17.03.28Z" fill="#5ca5f2"/><ellipse rx="4.25" ry="4.05" transform="matrix(.978509-.206204 0.206204 0.978509 405.49 182.98)" fill="#3d0e5d"/><path d="M279.45,186.6l8.55,3.73l6.63,3.27q2.57,3.22,5.98,5.44q2.05,2.55,4.88,4.28q2.14,3.5,4.91,6.61.12.13.23.14.15.02.31-.05-.09.12-.14.31-.1.36.08.68q7.06,12.5,8.84,26.77.73,5.84,1.14,11.38c.02119.354556.31952.63095.68.63l5.49-.01q-.25,4.61.81,7.94-3.34.72-6.94-.5c-.218779-.074026-.458508-.053545-.661559.05652s-.351058.299759-.408441.52348c-2.45,9.91-4.78,18.95-11.33,27.15-23.09,28.84-66.41,29.85-92.59,3.89-17.87-17.73-22.08-43.81-13.39-66.85c4.22-11.16,12.5-20.04,22.48-26.84c17.18-11.71,33.9-12.13,54.45-8.55Zm6.32,13.62c-17.43-9.36-35.82-9.1-53.25.33q-11.26,6.09-18.44,18.22c-9.45,15.99-10.15,34.27-1.73,50.7q7.72,15.05,22.5,22.92q15.17,8.07,34.14,5.64c48.81-6.28,58.49-75.43,16.78-97.81Z" fill="#ff018c"/><path d="M285.77,200.22c41.71,22.38,32.03,91.53-16.78,97.81q-18.97,2.43-34.14-5.64-14.78-7.87-22.5-22.92c-8.42-16.43-7.72-34.71,1.73-50.7q7.18-12.13,18.44-18.22c17.43-9.43,35.82-9.69,53.25-.33Zm9.3,33.37l-1.33-4.48.54-1.54q.22.15.49.16.22.01.47-.16q3.14-2.18,6.09-4.73.41-.35.13-.81-12.22-20.35-36.21-22.69-24.78-2.41-41.01,15.94c-24.31,27.47-9.82,72.53,27.26,78.63q22.96,3.78,41.39-10.8c.167683-.13239.271899-.329245.28712-.542349s-.059956-.422772-.20712-.577651l-4.64-4.85c-.335173-.34945-.335173-.903224,0-1.26c10.76-11.4,11.8-27.65,6.74-42.29Z" fill="#3d0e5d"/><ellipse rx="5.27" ry="5.04" transform="matrix(-.262189 0.965017-.965017-.262189 351.01 203.04)" fill="#3d0e5d"/><ellipse rx="4.23" ry="3.95" transform="matrix(.996041 0.088894-.088894 0.996041 405.54 204.15)" fill="#3d0e5d"/><circle r="2.76" transform="translate(368.06 203.36)" fill="#3d0e5d"/><path d="M294.28,227.57l-.54,1.54-5.43,3.4c-.561405.356575-1.305683.212097-1.7-.33q-2.07-2.83-4.64-5.64c-9.8-10.74-25.76-13.46-38.28-5.65q-17.81,11.1-13.35,34.28q4.26,12.23,14.28,18.22q13.12,7.85,27.9,2.38.25-.09.39.14l3.75,6.36q.17.28-.14.39-21.83,7.95-39.77-4.34c-10.32-7.07-16.42-20.51-15.74-33.24c1.19-22.19,19.96-39.23,42.37-36.98c12.78,1.28,23.49,8.89,30.9,19.47Z" fill="#ff018c"/><ellipse rx="4.81" ry="4.5" transform="matrix(-.113203 0.993572-.993572-.113203 339.35 214.73)" fill="#3d0e5d"/><path d="M397.81,215.53l2.51,13.71q-2.62-.15-7.56,1.85-6.7,2.71-12.52-2.58c-1.57-1.43-2.99-3.92-4.57-5.45q-2.36-2.29-5.13-4.05c-.299813-.189274-.488832-.512546-.506736-.866654s.137543-.694796.416736-.913346q2.57-2.01,4.67-4.61c1.63-2.01,3.22-3.41,5.22-.71c4.32,5.83,11.26,10.79,17.47,3.62Z" fill="#e5048e"/><ellipse rx="5" ry="4.78" transform="matrix(-.214735 0.976672-.976672-.214735 357.45 215.82)" fill="#3d0e5d"/><path d="M128.31,222.12l6.69-6.03q4.42-1.98,6.23,1.6c1.65,3.26-1.79,5.03-3.79,6.78q-11.75,10.27-9.76,25.78.18,1.37-.39,2.07-2.63,3.2-5.54,6.09c-.091979.086766-.22136.122134-.342972.093758s-.218572-.116558-.257028-.233758q-6.81-20.39,7.16-36.15Z" fill="#5ca5f2"/><path d="M293.74,229.11l1.33,4.48q-.18,3.07-2.03,3.72-3.66,1.28-7.51,2.51c-.722248.237557-1.514221-.082602-1.88-.76-13.7-25.61-48.69-17.14-47.39,13.05.035375.821583-.580992,1.526003-1.4,1.6q-1.85.17-4.52,1.46-4.46-23.18,13.35-34.28c12.52-7.81,28.48-5.09,38.28,5.65q2.57,2.81,4.64,5.64c.394317.542097,1.138595.686575,1.7.33l5.43-3.4Z" fill="#afaff0"/><rect width="6.12" height="53.56" rx="2.67" ry="2.67" transform="matrix(.999998-.001745 0.001745 0.999998 408.303274 228.58538)" fill="#5ca5f2"/><rect width="6.48" height="53.18" rx="2.13" ry="2.13" transform="translate(96.54 228.78)" fill="#5ca5f2"/><ellipse rx="5.2" ry="5.05" transform="matrix(.937282 0.348572-.348572 0.937282 332.68 238.12)" fill="#ff018c"/><path d="M168.59,274.16q-9.52,2.25-17.83,8.04q6.63-8.83,17.83-8.04Z" fill="#6454aa"/><path d="M185.07,281.69q-1.41-4.3-4.8-7.4h10.7c.451018-.002003.865071.249059,1.071821.649903s.17128.883765-.091821,1.250097q-2.88,4.07-6.88,5.5Z" fill="#6454aa"/><path d="M168.59,274.16l11.68.13q3.39,3.1,4.8,7.4c-11.5-.25-21.63-1.16-28.23,8.65-2.93,4.35-2.79,11.22-8.26,13.32l-.4-17.45l2.58-4.01q8.31-5.79,17.83-8.04Z" fill="#5ca5f2"/><path d="M278.69,310.49c12.82-3.67,24.08-9.1,32.67-19.58.47464-.581751,1.186864-.919507,1.94-.92l5.68.03c.226632-.00144.441834.099634.586903.275652s.204873.408616.163097.634348c-1.37,7.17-11.05,15.01-16.75,18.02-13.55,7.17-23.97,12.21-37.64,10.53-.102665-.011949-.191211-.077638-.232423-.172425s-.02886-.204344.032423-.287575c3.64-4.9,7.2-6.72,13.55-8.53Z" fill="#5ca5f2"/><ellipse rx="4.37" ry="4.15" transform="matrix(.996917 0.078459-.078459 0.996917 383.49 294.96)" fill="#ff018c"/><path d="M193.34,298.29l4.09,6.38c.85,5.88.86,8.67-1.1,14.02l-11.9.17l2.27-1.38q.41-.24.66-.65c5.91-9.65-8.93-13.19-10.1-4.85q-.74,5.19,5.03,6.86-9.87,1.12-13,2.46-14.79,6.32-16.55,23.36-.12,1.16-1.29,1.22c-4.72.23-7.56,2.61-6.98,7.58q.07.62-.45.27-6.03-3.95-10.09.33c-5.18,5.48.41,13.62,7.2,11.82.97-.26,1.86-1,2.84-1.55q.67-.37.56.39-.64,4.26.77,8.26.19.56-.38.73c-7.67,2.36-15.71.31-19.53-7.08-4.07-7.88-1.84-17.45,6.43-22.07c3.87-2.17,6.75-5.78,9.91-8.83q3.22-3.12,6.37-6.62c5.69-6.3,12.09-12.01,17.61-18.21c6-6.74,10.93-12.95,20.14-13.74c2.48-.21,4.93.82,7.49,1.13Z" fill="#ff018c"/><path d="M201.63,302.46c1.27,6.03,2.01,10.67-.88,16.55-.18803.376685-.6099.575213-1.02.48l-3.4-.8c1.96-5.35,1.95-8.14,1.1-14.02q1.77.2,4.2-2.21Z" fill="#6454aa"/><path d="M184.43,318.86l-2.14-.02q-5.77-1.67-5.03-6.86c1.17-8.34,16.01-4.8,10.1,4.85q-.25.41-.66.65l-2.27,1.38Z" fill="#3d0e5d"/><path d="M278.1,327.19q-3.02,4.73-.02,7.34-.6.46-1.08.46-33.75.02-67.43,0c-.214169.001976-.411369-.116272-.510512-.306121s-.083495-.419252.040512-.593879c2.37-3.38,5.29-7.65,9.9-7.59q29.46.41,59.1.69Z" fill="#5ca5f2"/><path d="M317.9,343.93l-6.4-.16c2.46-9.16-13.72-10.04-11.12.67l-6.52,1.42c.48-2.09.32-4.35.87-6.15c2.12-6.88,8.91-10.25,15.61-7.66q7.03,2.71,7.56,11.88Z" fill="#ff018c"/><path d="M311.5,343.77l-11.12.67c-2.6-10.71,13.58-9.83,11.12-.67Z" fill="#3d0e5d"/><path d="M348.77,358.55l-4.87-5.63q6.71-5.37,10.8-11.73c1.200717-1.87556,3.253744-3.033197,5.48-3.09l4.64-.13q3.32-.09,1.46,2.66-7.27,10.75-17.51,17.92Z" fill="#5ca5f2"/><path d="M237.42,353.42l-1.57,2.57c-.055458.089174-.152291.144209-.257284.146229s-.20387-.049253-.262716-.136229l-1.65-2.52c-.061631-.093873-.067676-.213737-.015802-.313334s.153554-.163355.265802-.166666l3.22-.05c.11259-.001635.217214.057911.273304.155549s.054825.218013-.003304.314451Z" fill="#3d0e5d"/><path d="M269.44,375.51q-1.41-.63-3.31-.54l4.05-6.32q.83-1.29.54.21l-1.28,6.65Z" fill="#3d0e5d"/><path d="M192.99,376.02c4.41-.11,7.16.27,9.76-4.01q.28-.46.59-.02q1.75,2.48,3.09,5.19c1.3,2.62.1,5.46,4.04,6.62q.5.15.77.59l1.73,2.81c.178219.300859.170469.676743-.02.97l-3,4.62q-.5.77-1.35.42l-15.78-6.43q-.5-.21-.5-.75l-.01-9.31q0-.68.68-.7Z" fill="#3d0e5d"/><path d="M266.13,374.97q1.9-.09,3.31.54.01,3.14,1.18,5.13q1.01,1.72,4.54,3.09l-14.48.01l5.45-8.77Z" fill="#5ca5f2"/><path d="M260.68,383.74l14.48-.01q-7.76,6.78-8.05,15.01-.11,3.07-1.75.47l-6.55-10.44q-.81-1.29.08-2.52l1.79-2.51Z" fill="#3d0e5d"/></g></g></g><g id="eRPFM5icXzH91_to" transform="translate(17.487593,489.316651)"><g id="eRPFM5icXzH91_ts" transform="scale(0.175226,0.212751)"><g id="eRPFM5icXzH91" transform="translate(-250.45021,-375.143402)" opacity="0"><path d="M186.02,370.39l.1,52.15c0,.364508-.295492.66-.66.66l-25.97-.01c-.254051,0-.46-.201472-.46-.45l.01-52.45c.000018-.200657-.080371-.392954-.223194-.533897s-.336167-.218778-.536806-.216103l-7,.11c-.16616.00268-.326441-.061456-.444885-.17802s-.185137-.275798-.185115-.44198l.01-16.3c.000025-.163528.06463-.320217.179319-.434906s.269856-.177772.430681-.175094l6.99.06c.213388.00378.418281-.083529.563358-.240059s.216595-.367454.196642-.579941c-.57-5.85.39-12.14,3.62-17.01c6.88-10.38,22.5-9.64,33.34-9.22.542127.021487.970426.467447.97,1.01l.02,17.12c.000044.338549-.271495.61454-.61.62l-5.53.11q-3.58.07-4.53,3.52l-.5,1.81q-.78,2.87,2.19,2.82l8.03-.14c.237771-.002672.466723.089915.635799.257113s.264216.395101.264201.632887l.07,15.84c.002703.258079-.098625.506376-.281125.688875s-.430796.283828-.688875.281125l-9.16-.14q-.84-.01-.84.83Z" fill="#e5048e"/><path d="M321.02,416.14q-6.4,7.48-16.76,8.86c-15.44,2.06-33.47-4.62-31.5-23.5c2.13-20.35,26.72-19.53,41.88-23.29q2.38-.59,4.68-2.86.33-.32.42-.76c1.23-6.06-4.94-6.89-9.53-6.57q-8.03.57-9.11,8.46-.07.53-.6.53h-23.99q-.5,0-.49-.51c.62-28.85,34.62-29.38,54.49-23.8q2.92.82,7.27,3.71c7.57,5.04,9.47,12.94,9.48,22.03q.01,19.41.06,38.81.01,2.5,2.17,3.5c.347871.164999.601693.477679.69.85q.13.57.02,1.17-.08.42-.51.42h-26.73c-.415875.001595-.763614-.315717-.8-.73l-.56-6.14q-.07-.78-.58-.18Zm-16.39-8.54c11.37,2.27,17.54-4.97,16.46-15.84-.013184-.151888-.107641-.284703-.246787-.347008s-.30113-.044312-.423213.047008c-3.32,2.41-7.95,3.25-11.91,4.13-3.89.86-10.52,2.76-9.48,7.46.61,2.76,2.98,4.03,5.6,4.55Z" fill="#e5048e"/><path d="M225.78,423.19l-27.02.01c-.114044.000284-.219034-.062073-.273352-.162351s-.049189-.222283.013352-.317649l22.12-34.94c.067694-.103225.067694-.236775,0-.34l-22.19-34.88c-.063632-.096874-.067908-.221154-.011085-.322173s.165253-.161901.281085-.157827l27.02.06c.115912-.003232.223937.058496.28.16l9.22,17.21c.053133.098471.155207.160668.267079.16274s.216179-.056304.272921-.15274l9.39-17.19c.054359-.098317.157657-.159531.27-.16l26.94-.11c.114044-.000284.219034.062073.273352.162351s.049189.222283-.013352.317649l-21.86,34.89c-.059309.098422-.059309.221578,0,.32l21.76,34.98c.057214.094907.059415.213137.005771.310108s-.154969.15793-.265771.159892l-27.29-.02c-.118096.001297-.22667-.064623-.28-.17l-8.92-17.32c-.053368-.102566-.15938-.166909-.275-.166909s-.221632.064343-.275.166909l-9.16,17.33c-.05333.105377-.161904.171297-.28.17Z" fill="#e5048e"/></g></g></g></svg>
